<?xml version="1.0" encoding="UTF-8"?>
<svg width="45px" height="45px" viewBox="0 0 45 45" version="1.1" xmlns="http://www.w3.org/2000/svg" xmlns:xlink="http://www.w3.org/1999/xlink">
    <!-- Generator: Sketch 42 (36781) - http://www.bohemiancoding.com/sketch -->
    <title>facebook</title>
    <desc>Created with Sketch.</desc>
    <defs></defs>
    <g id="Desktop" stroke="none" stroke-width="1" fill="none" fill-rule="evenodd">
        <g id="Thank-You" transform="translate(-814.000000, -452.000000)" fill="#3C5999">
            <g id="Share" transform="translate(741.000000, 372.000000)">
                <g id="share" transform="translate(4.000000, 38.000000)">
                    <path d="M111.516102,42 L71.483561,42 C70.1116169,42 69,43.1117855 69,44.483561 L69,84.5162704 C69,85.8878773 70.1116169,87 71.483561,87 L93.0357444,87 L93.0357444,69.5735964 L87.1714719,69.5735964 L87.1714719,62.7821615 L93.0357444,62.7821615 L93.0357444,57.7737312 C93.0357444,51.9615579 96.5855674,48.7966616 101.770528,48.7966616 C104.254089,48.7966616 106.388805,48.9814534 107.010959,49.0640701 L107.010959,55.1382566 L103.41477,55.1399427 C100.595009,55.1399427 100.048896,56.4798516 100.048896,58.4461305 L100.048896,62.7821615 L106.774068,62.7821615 L105.898331,69.5735964 L100.048896,69.5735964 L100.048896,87 L111.516102,87 C112.88754,87 113.999663,85.8878773 113.999663,84.5162704 L113.999663,44.483561 C113.999663,43.1117855 112.88754,42 111.516102,42" id="facebook"></path>
                </g>
            </g>
        </g>
    </g>
</svg>