<?xml version="1.0" encoding="UTF-8" standalone="no"?>
<svg width="21px" height="19px" viewBox="0 0 21 19" version="1.1" xmlns="http://www.w3.org/2000/svg" xmlns:xlink="http://www.w3.org/1999/xlink">
    <!-- Generator: Sketch 41.2 (35397) - http://www.bohemiancoding.com/sketch -->
    <title>gay-rights</title>
    <desc>Created with Sketch.</desc>
    <defs></defs>
    <g id="Page-1" stroke="none" stroke-width="1" fill="none" fill-rule="evenodd">
        <g id="Home-2.0-(choosing-NPO)" transform="translate(-963.000000, -575.000000)" fill="#FFFFFF">
            <g id="Main" transform="translate(240.000000, 283.000000)">
                <g id="Gay-Rights" transform="translate(667.000000, 264.000000)">
                    <path d="M74.0786981,38.958442 C77.553326,35.4838141 77.7720089,31.8876956 75.560882,29.6765687 C73.325457,27.4411438 69.7293386,27.4411438 67.5182117,29.6765687 C67.105144,30.0896364 66.7649707,30.5513002 66.4976916,31.0372622 C66.2304125,30.5513002 65.8902392,30.0896364 65.4771715,29.6765687 C63.2660446,27.4654419 59.6699262,27.4654419 57.4587993,29.6765687 C55.2233743,31.8876956 55.4420572,35.4838141 58.9166852,38.958442 L66.1818163,46.2478713 C66.2547106,46.3207656 66.3762011,46.3693618 66.4976916,46.3693618 C66.6191821,46.3693618 66.7163745,46.3207656 66.8135669,46.2478713 L74.0786981,38.958442 Z" id="gay-rights"></path>
                </g>
            </g>
        </g>
    </g>
</svg>