<?xml version="1.0" encoding="UTF-8" standalone="no"?>
<svg width="26px" height="17px" viewBox="0 0 26 17" version="1.1" xmlns="http://www.w3.org/2000/svg" xmlns:xlink="http://www.w3.org/1999/xlink">
    <!-- Generator: Sketch 41.2 (35397) - http://www.bohemiancoding.com/sketch -->
    <title>racial justice</title>
    <desc>Created with Sketch.</desc>
    <defs></defs>
    <g id="Page-1" stroke="none" stroke-width="1" fill="none" fill-rule="evenodd">
        <g id="Home-2.0-(choosing-NPO)" transform="translate(-798.000000, -688.000000)" fill="#FFFFFF">
            <g id="Main" transform="translate(240.000000, 283.000000)">
                <g id="Racial-Justice" transform="translate(505.000000, 380.000000)">
                    <g id="racial-justice" transform="translate(53.000000, 25.000000)">
                        <path d="M17.5,15 C21.0898509,15 24,12.0898509 24,8.5 C24,4.91014913 21.0898509,2 17.5,2 C13.9101491,2 11,4.91014913 11,8.5 C11,12.0898509 13.9101491,15 17.5,15 Z M17.5,17 C12.8055796,17 9,13.1944204 9,8.5 C9,3.80557963 12.8055796,0 17.5,0 C22.1944204,0 26,3.80557963 26,8.5 C26,13.1944204 22.1944204,17 17.5,17 Z" id="Oval-2"></path>
                        <path d="M12,2.01903239 C13.4824404,0.759734508 15.4024975,0 17.5,0 C22.1944204,0 26,3.80557963 26,8.5 C26,13.1944204 22.1944204,17 17.5,17 C15.4024975,17 13.4824404,16.2402655 12,14.9809676 C13.8354094,13.4218309 15,11.0969178 15,8.5 C15,5.90308217 13.8354094,3.57816905 12,2.01903239 Z" id="Combined-Shape"></path>
                        <path d="M8.5,15 C12.0898509,15 15,12.0898509 15,8.5 C15,4.91014913 12.0898509,2 8.5,2 C4.91014913,2 2,4.91014913 2,8.5 C2,12.0898509 4.91014913,15 8.5,15 Z M8.5,17 C3.80557963,17 0,13.1944204 0,8.5 C0,3.80557963 3.80557963,0 8.5,0 C13.1944204,0 17,3.80557963 17,8.5 C17,13.1944204 13.1944204,17 8.5,17 Z" id="Oval-2"></path>
                    </g>
                </g>
            </g>
        </g>
    </g>
</svg>