<?xml version="1.0" encoding="UTF-8" standalone="no"?>
<svg width="22px" height="27px" viewBox="0 0 22 27" version="1.1" xmlns="http://www.w3.org/2000/svg" xmlns:xlink="http://www.w3.org/1999/xlink">
    <!-- Generator: Sketch 41.2 (35397) - http://www.bohemiancoding.com/sketch -->
    <title>veterans-rights</title>
    <desc>Created with Sketch.</desc>
    <defs>
        <circle id="path-1" cx="10" cy="9" r="2"></circle>
        <mask id="mask-2" maskContentUnits="userSpaceOnUse" maskUnits="objectBoundingBox" x="0" y="0" width="4" height="4" fill="white">
            <use xlink:href="#path-1"></use>
        </mask>
        <circle id="path-3" cx="10" cy="18" r="8"></circle>
        <mask id="mask-4" maskContentUnits="userSpaceOnUse" maskUnits="objectBoundingBox" x="0" y="0" width="16" height="16" fill="white">
            <use xlink:href="#path-3"></use>
        </mask>
    </defs>
    <g id="Page-1" stroke="none" stroke-width="1" fill="none" fill-rule="evenodd">
        <g id="Home-2.0-(choosing-NPO)" transform="translate(-1124.000000, -683.000000)">
            <g id="Main" transform="translate(240.000000, 283.000000)">
                <g id="more" transform="translate(829.000000, 380.000000)">
                    <g id="veterans-rights" transform="translate(56.000000, 21.000000)">
                        <path d="M0.000591610311,0 L19.9994084,0 C19.9994084,0 20.2573716,7 10,7 C-0.257371553,7 0.000591610311,0 0.000591610311,0 Z" id="Path-4" stroke="#FFFFFF" stroke-width="2"></path>
                        <use id="Oval-5" stroke="#FFFFFF" mask="url(#mask-2)" stroke-width="2" xlink:href="#path-1"></use>
                        <use id="Oval-5" stroke="#FFFFFF" mask="url(#mask-4)" stroke-width="4" xlink:href="#path-3"></use>
                        <polygon id="Star-2" fill="#FFFFFF" points="10 19.5 8.23664424 20.427051 8.57341523 18.4635255 7.14683045 17.072949 9.11832212 16.7864745 10 15 10.8816779 16.7864745 12.8531695 17.072949 11.4265848 18.4635255 11.7633558 20.427051"></polygon>
                    </g>
                </g>
            </g>
        </g>
    </g>
</svg>