<?xml version="1.0" encoding="UTF-8" standalone="no"?>
<svg width="16px" height="24px" viewBox="0 0 16 24" version="1.1" xmlns="http://www.w3.org/2000/svg" xmlns:xlink="http://www.w3.org/1999/xlink">
    <!-- Generator: Sketch 41.2 (35397) - http://www.bohemiancoding.com/sketch -->
    <title>womens-rights</title>
    <desc>Created with Sketch.</desc>
    <defs></defs>
    <g id="Page-1" stroke="none" stroke-width="1" fill="none" fill-rule="evenodd">
        <g id="Home-2.0-(choosing-NPO)" transform="translate(-965.000000, -685.000000)" fill="#FFFFFF">
            <g id="Main" transform="translate(240.000000, 283.000000)">
                <g id="Woman's-Rights" transform="translate(667.000000, 380.000000)">
                    <g id="womens-rights" transform="translate(58.000000, 22.000000)">
                        <rect id="Rectangle-6" x="7" y="15" width="2" height="9"></rect>
                        <rect id="Rectangle-7" x="4" y="19" width="8" height="2"></rect>
                        <path d="M8,14 C11.3137085,14 14,11.3137085 14,8 C14,4.6862915 11.3137085,2 8,2 C4.6862915,2 2,4.6862915 2,8 C2,11.3137085 4.6862915,14 8,14 Z M8,16 C3.581722,16 0,12.418278 0,8 C0,3.581722 3.581722,0 8,0 C12.418278,0 16,3.581722 16,8 C16,12.418278 12.418278,16 8,16 Z" id="Oval-3"></path>
                    </g>
                </g>
            </g>
        </g>
    </g>
</svg>