<?xml version="1.0" standalone="no"?>
<!DOCTYPE svg PUBLIC "-//W3C//DTD SVG 20010904//EN"
 "http://www.w3.org/TR/2001/REC-SVG-20010904/DTD/svg10.dtd">
<svg version="1.0" xmlns="http://www.w3.org/2000/svg"
 width="260.000000pt" height="260.000000pt" viewBox="0 0 260.000000 260.000000"
 preserveAspectRatio="xMidYMid meet">
<metadata>
Created by potrace 1.11, written by Peter Selinger 2001-2013
</metadata>
<g transform="translate(0.000000,260.000000) scale(0.100000,-0.100000)"
fill="#000000" stroke="none">
<path d="M0 1300 l0 -480 183 0 c100 1 187 4 193 8 10 6 117 149 587 782 55
74 107 143 115 153 14 16 5 17 -175 17 l-190 0 -149 -200 c-246 -332 -256
-345 -263 -348 -4 -1 -7 121 -7 273 l1 275 -147 0 -148 0 0 -480z"/>
<path d="M1250 1544 c-96 -130 -251 -337 -343 -461 -92 -124 -172 -234 -178
-244 -9 -18 -2 -19 176 -18 l185 1 158 211 c87 117 180 242 207 280 l50 67 3
-279 2 -279 187 0 c168 0 189 2 203 18 8 10 102 135 209 279 106 144 194 261
195 261 2 0 2 -120 2 -267 -1 -148 0 -274 2 -280 3 -9 42 -13 148 -12 l144 0
0 479 0 480 -189 0 -189 0 -198 -267 c-109 -148 -203 -273 -209 -280 -9 -8
-12 56 -12 250 -1 144 -2 270 -2 280 -1 16 -17 17 -188 17 l-188 0 -175 -236z"/>
</g>
</svg>
