<?xml version="1.0" standalone="no"?>
<!DOCTYPE svg PUBLIC "-//W3C//DTD SVG 1.1//EN" "http://www.w3.org/Graphics/SVG/1.1/DTD/svg11.dtd" >
<svg xmlns="http://www.w3.org/2000/svg">
<metadata></metadata>
<defs>
<font id="questaitalic" horiz-adv-x="1105" >
<font-face units-per-em="2048" ascent="1536" descent="-512" />
<missing-glyph horiz-adv-x="485" />
<glyph unicode="&#xfb01;" horiz-adv-x="1148" d="M53 848l10 74h154q7 87 8 92q51 483 445 483q119 0 212 -46t93 -124q0 -62 -50 -98.5t-141 -36.5q12 44 13.5 84t-9 76.5t-42.5 58t-84 21.5q-121 0 -179 -103t-82 -340l-6 -67h563q0 -85 -56 -429t-56 -378q0 -41 33 -41q32 0 67.5 43t61 95t41.5 103l73 -16 q-56 -157 -122.5 -237t-168.5 -80q-69 0 -112 38.5t-43 112.5q0 58 48 350.5t48 364.5h-383q-1 -13 -15 -187t-21 -247t-21.5 -201t-28.5 -213q-15 -91 -34 -159.5t-50.5 -134.5t-73 -108.5t-102.5 -68t-139 -25.5q-65 0 -120.5 16t-92.5 51.5t-37 86.5q0 68 58 103.5 t130 27.5q-30 -67 -30 -123q0 -96 96 -96q49 0 84 25t60.5 82.5t42.5 130.5t34 188q49 330 84 852h-160z" />
<glyph unicode="&#xfb02;" horiz-adv-x="1179" d="M129 -4q49 330 84 852h-160l10 74h154q11 130 31 223t65 164q118 188 396 188q107 0 206 -27h148q0 -110 -47.5 -418.5t-94.5 -592t-47 -332.5q0 -29 7 -41t24 -12q40 0 86.5 63.5t85.5 177.5l74 -16q-54 -157 -123.5 -237t-169.5 -80q-69 0 -111 39t-42 122 q0 84 76.5 555t90.5 631q-1 48 -54 75.5t-134 27.5q-45 0 -79 -9t-69.5 -37t-60.5 -75.5t-45.5 -128.5t-30.5 -193l-6 -67h275l-11 -74h-270q-44 -614 -84 -848q-15 -91 -34 -159.5t-50.5 -134.5t-73 -108.5t-102.5 -68t-139 -25.5q-65 0 -120.5 16t-92.5 51.5t-37 86.5 q0 68 59 104.5t129 26.5q-30 -67 -30 -123q0 -96 96 -96q49 0 84 25t60.5 82.5t42.5 130.5t34 188z" />
<glyph unicode="&#xfb03;" horiz-adv-x="1779" d="M53 848l10 74h154q4 50 4 51q14 222 113 352.5t270 130.5q64 0 120 -16.5t95 -54.5t39 -91q0 -64 -55 -98.5t-135 -34.5q24 73 24 137q0 93 -96 93q-35 0 -61.5 -12t-46 -40t-33.5 -61.5t-24.5 -88t-17 -108t-14.5 -133.5l-4 -26h455q2 36 8 92q21 232 130.5 357.5 t311.5 125.5q76 0 143.5 -16.5t115 -54.5t47.5 -91q0 -61 -56.5 -102t-134.5 -41q25 54 25 123q0 56 -39 86.5t-111 30.5q-64 0 -107.5 -25.5t-73 -83.5t-46.5 -135.5t-31 -198.5q-3 -14 -6 -67h563q0 -85 -56 -429t-56 -378q0 -41 32 -41t67.5 43t61 95t41.5 103l74 -16 q-56 -157 -122.5 -237t-168.5 -80q-69 0 -112 38.5t-43 112.5q0 58 48 350.5t48 364.5h-383q-51 -639 -86 -848q-37 -230 -130 -348.5t-269 -118.5q-65 0 -120.5 16t-92.5 51.5t-37 86.5q0 68 58.5 105t129.5 26q-31 -69 -31 -125q0 -94 99 -94q88 0 137.5 88t81.5 309 q28 194 84 852h-455q-51 -638 -86 -848q-16 -90 -33.5 -156.5t-49 -134t-72 -110t-103 -69t-141.5 -26.5q-65 0 -120.5 16t-92.5 51.5t-37 86.5q0 68 59.5 105t128.5 26q-30 -67 -30 -123q0 -96 96 -96q40 0 71 19t53 51.5t40.5 88t31 117t25.5 150.5q55 374 84 852h-160z " />
<glyph unicode="&#xfb04;" horiz-adv-x="1810" d="M129 -4q43 291 84 852h-160l10 74h154q8 81 15 129.5t27.5 118t53.5 124.5q97 162 289 162q103 0 179.5 -42t76.5 -120q0 -64 -55 -98.5t-135 -34.5q24 73 24 137q0 93 -98 93q-36 0 -63.5 -13.5t-47 -47.5t-32 -62t-23.5 -89.5t-15.5 -95t-13.5 -110.5l-6 -51h457 q6 76 9 109t14 96.5t31.5 111.5t51.5 92q119 166 383 166q108 0 207 -27h148q0 -110 -47 -418.5t-94.5 -592t-47.5 -332.5q0 -29 7 -41t24 -12q40 0 86.5 63.5t85.5 177.5l74 -16q-54 -157 -123.5 -237t-169.5 -80q-70 0 -112 39t-42 122q0 77 76 542t92 644q-1 48 -54 75.5 t-134 27.5q-39 0 -71.5 -9t-57 -22.5t-45 -39t-34.5 -47.5t-26 -59.5t-19 -64.5t-14 -72.5t-10.5 -73t-8.5 -76.5q-3 -31 -5 -46h274l-10 -74h-268q-44 -597 -86 -848q-15 -86 -34.5 -152.5t-51.5 -127.5t-73.5 -101t-101.5 -63t-136 -23q-104 0 -178 39.5t-74 114.5 q0 69 58 104t130 27q-31 -69 -31 -125q0 -94 101 -94q88 0 135.5 87.5t81.5 309.5q41 265 84 852h-455q-42 -584 -86 -848q-15 -91 -34 -159.5t-50.5 -134.5t-73 -108.5t-102.5 -68t-139 -25.5q-65 0 -120.5 16t-92.5 51.5t-37 86.5q0 70 59 106t129 25q-30 -67 -30 -123 q0 -96 96 -96q49 0 84 25t60.5 82.5t42.5 130.5t34 188z" />
<glyph horiz-adv-x="2048" />
<glyph horiz-adv-x="2048" />
<glyph unicode="&#xd;" horiz-adv-x="2048" />
<glyph unicode=" "  horiz-adv-x="485" />
<glyph unicode="&#x09;" horiz-adv-x="485" />
<glyph unicode="&#xa0;" horiz-adv-x="485" />
<glyph unicode="!" horiz-adv-x="569" d="M233 440q23 742 37 838q7 53 44 78.5t75 25.5q41 0 74 -23t33 -69q0 -55 -98.5 -447t-98.5 -403h-66zM86 113q0 54 39.5 93.5t93.5 39.5q55 0 95 -39.5t40 -93.5t-40 -93.5t-95 -39.5q-54 0 -93.5 39.5t-39.5 93.5z" />
<glyph unicode="&#x22;" horiz-adv-x="735" d="M539 922v170q0 169 12 254.5t35.5 115t70.5 29.5q80 0 80 -76q0 -22 -7.5 -61.5t-17 -76.5t-26.5 -95t-27.5 -91t-30 -94t-24.5 -75h-65zM215 922v170q0 169 12 255t36 115t71 29q80 0 80 -76q0 -22 -7.5 -61.5t-17 -76.5t-26.5 -95t-27.5 -91t-30 -94t-24.5 -75h-66z " />
<glyph unicode="#" horiz-adv-x="1284" d="M123 705l24 120h269l96 445h127l-96 -445h301l96 445h127l-96 -445h256l-27 -120h-254l-57 -265h272l-26 -121h-271l-94 -442h-129l94 442h-299l-94 -442h-129l94 442h-252l27 121h252l55 265h-266zM518 705l-57 -265h301l55 265h-299z" />
<glyph unicode="$" d="M78 -12q27 130 37 200l26 181h86q-14 -100 -14 -119q0 -73 56 -127.5t155 -69.5l61 434q-48 21 -82.5 40t-75.5 50t-67 65t-43.5 82.5t-17.5 104.5q0 138 108.5 225.5t272.5 92.5l20 143h82l-20 -147q117 -11 202 -84l60 82h73l-15 -41q-15 -41 -32.5 -96.5t-21.5 -83.5 l-19 -138h-86q15 95 15 113q0 63 -49.5 110.5t-139.5 59.5l-59 -430q38 -15 58 -24t59 -28.5t62 -36t53 -43t46.5 -54t28.5 -65t12 -79.5q0 -66 -28.5 -126t-80.5 -106t-131 -73.5t-173 -28.5l-21 -143h-82l21 149q-144 17 -219 97l-43 -86h-74zM752 244q0 72 -48 120 t-141 91l-57 -406q108 3 177 52t69 143zM344 879q0 -74 43.5 -122.5t124.5 -86.5l55 397q-97 -7 -160 -53t-63 -135z" />
<glyph unicode="%" horiz-adv-x="1699" d="M455 739q-132 0 -226 92t-94 224q0 133 93.5 225t226.5 92t226 -92t93 -225q0 -132 -93.5 -224t-225.5 -92zM373 0l848 1354h141l-850 -1354h-139zM455 852q78 0 134 61t56 142q0 82 -55.5 142t-134.5 60q-78 0 -134.5 -60t-56.5 -142q0 -80 57 -141.5t134 -61.5z M954 297q0 132 93 223.5t225 91.5q134 0 226.5 -91.5t92.5 -223.5q0 -133 -92.5 -225t-226.5 -92q-132 0 -225 92t-93 225zM1081 297q0 -82 56.5 -142.5t134.5 -60.5q79 0 135.5 60.5t56.5 142.5q0 81 -56.5 142t-135.5 61q-77 0 -134 -61.5t-57 -141.5z" />
<glyph unicode="&#x26;" horiz-adv-x="1425" d="M94 324q0 139 90 261.5t262 196.5q-40 112 -40 215q0 80 23 148.5t68 122t119.5 84t169.5 30.5q132 0 216.5 -55.5t84.5 -148.5q0 -158 -188 -158q29 89 29 147q0 142 -140 142q-200 0 -200 -228q0 -57 6.5 -106.5t43 -155t103.5 -233.5q102 -191 179 -316q78 65 126 142 t48 184q0 66 -43.5 104.5t-118.5 38.5l-31 -2l10 70q17 4 60 4q100 0 154.5 -63t54.5 -144q0 -70 -18 -131.5t-52 -111.5t-67 -85.5t-78 -74.5q55 -81 91 -110.5t70 -29.5q45 0 74 25t39 57.5t10 71.5q0 27 -4 51l76 10q4 -23 4 -63q0 -112 -64.5 -177t-181.5 -65 q-132 0 -254 125q-18 -14 -40.5 -28.5t-69.5 -39.5t-108.5 -41t-123.5 -16q-167 0 -278 95.5t-111 257.5zM571 506q-63 120 -98 207q-99 -48 -149 -131.5t-50 -186.5q0 -82 28.5 -152.5t91 -117.5t147.5 -47q120 0 231 80q-40 52 -80.5 119.5t-67 121.5t-53.5 107z" />
<glyph unicode="'" horiz-adv-x="411" d="M215 922v170q0 169 12 255t36 115t71 29q80 0 80 -76q0 -22 -7.5 -61.5t-17 -76.5t-26.5 -95t-27.5 -91t-30 -94t-24.5 -75h-66z" />
<glyph unicode="(" horiz-adv-x="628" d="M74 338q0 152 30.5 297.5t80 257t109 211t118.5 168.5t108.5 120t79.5 75l31 24l59 -66q-9 -7 -24.5 -20.5t-59 -57t-82.5 -90t-85 -117t-77 -139.5q-51 -114 -91 -426.5t-40 -449.5q0 -148 61.5 -293.5t164.5 -255.5l-62 -63q-7 6 -18.5 18t-44.5 53.5t-63.5 88 t-67.5 120.5t-63.5 152t-45 182t-18.5 211z" />
<glyph unicode=")" horiz-adv-x="626" d="M248 2q45 114 88 415t43 462q0 295 -225 548l61 64q7 -6 18.5 -18t45 -53.5t64 -88t67.5 -120.5t63.5 -152t45 -182t18.5 -211q0 -152 -30.5 -297.5t-80 -257t-109 -211t-118.5 -168.5t-108.5 -120t-80.5 -75l-30 -24l-60 65q9 7 25.5 20.5t61 57.5t84 90.5t85 116.5 t72.5 139z" />
<glyph unicode="*" horiz-adv-x="1167" d="M612 1081q-64 126 -61 254q0 156 90 156q34 -1 57 -17t47 -44q-27 -62 -41 -100t-28 -104t-17 -141zM293 1014q-76 26 -104.5 59t-16.5 76q12 32 35 49.5t57 30.5q52 -47 82 -71t89 -58t130 -60l-12 -47q-141 -20 -260 21zM733 1010l-20 43q113 106 223 137 q142 46 178 -37q2 -9 3 -17t0 -16t-1 -14t-3 -14.5t-4.5 -12.5t-5.5 -13t-5.5 -11.5t-6.5 -12t-6 -10.5q-68 12 -158 9.5t-194 -31.5zM813 588q-18 95 -44 166t-87 161l35 33q132 -72 201 -170q86 -124 18 -180q-21 -13 -45.5 -16.5t-37 -1.5t-40.5 8zM354 596 q-19 15 -30 37t-13.5 36t-5.5 40q60 34 93.5 55.5t83.5 66.5t96 105l40 -25q-24 -144 -98 -241q-49 -64 -89.5 -81.5t-76.5 7.5z" />
<glyph unicode="+" d="M84 434v123h395v428h131v-428h391v-123h-391v-434h-131v434h-395z" />
<glyph unicode="," horiz-adv-x="528" d="M49 113q15 63 57 98t99 35q61 0 102 -50t41 -122q0 -128 -85.5 -224t-242.5 -182l-36 64q107 60 167 119.5t60 123.5q0 101 -162 138z" />
<glyph unicode="-" horiz-adv-x="788" d="M113 403l22 160h516l-22 -160h-516z" />
<glyph unicode="." horiz-adv-x="495" d="M53 113q0 54 39.5 93.5t93.5 39.5q55 0 95.5 -39.5t40.5 -93.5t-40.5 -93.5t-95.5 -39.5q-54 0 -93.5 39.5t-39.5 93.5z" />
<glyph unicode="/" horiz-adv-x="880" d="M41 -467h-137l919 1937h138z" />
<glyph unicode="0" horiz-adv-x="1095" d="M96 418q0 256 144 426t376 170q174 0 269.5 -116.5t95.5 -311.5q0 -169 -61.5 -308.5t-178.5 -223t-268 -83.5q-184 0 -280.5 122t-96.5 325zM287 367q0 -312 215 -312q107 0 193 76t131.5 196.5t45.5 258.5q0 152 -59 248t-178 96q-69 0 -127.5 -34t-98.5 -90 t-68 -129.5t-41 -152t-13 -157.5z" />
<glyph unicode="1" horiz-adv-x="858" d="M16 0l13 74h270l127 798h-270l12 74q98 0 212 13t178 25l65 13l-146 -923h266l-12 -74h-715z" />
<glyph unicode="2" horiz-adv-x="1038" d="M14 0l6 74q170 86 295.5 169t194.5 147t110 127t52.5 105.5t11.5 86.5q0 170 -195 170q-117 0 -174.5 -60.5t-72.5 -191.5l-80 10q37 377 377 377q146 0 234.5 -71t88.5 -189q0 -150 -144.5 -298.5t-418.5 -308.5l-18 -10h505l37 185h82l-59 -322h-832z" />
<glyph unicode="3" horiz-adv-x="966" d="M-12 -139q0 69 45 105t129 36q-10 -42 -15 -70.5t-7 -64.5t7 -58.5t27.5 -43.5t54 -31t86.5 -10q84 0 147.5 27.5t99.5 73t53.5 98.5t17.5 110q0 109 -79.5 180t-229.5 94l2 68q65 6 124.5 29t110 62t81 99.5t30.5 134.5q0 91 -47.5 135t-145.5 44q-121 0 -180.5 -63 t-73.5 -189l-80 10q8 79 33 145t69.5 119t115 83t161.5 30q148 0 237 -76t89 -203q0 -121 -79 -210t-200 -142q224 -70 224 -309q0 -183 -136 -300.5t-342 -117.5q-59 0 -114 11t-105 33.5t-80 64t-30 96.5z" />
<glyph unicode="4" horiz-adv-x="1073" d="M-16 39l12 102l743 860h92q-65 -410 -124 -849h245l-14 -113h-246q-28 -210 -43 -356h-170q8 90 43 356h-538zM537 152q18 120 39 248.5t38.5 234t22.5 133.5l-526 -616h426z" />
<glyph unicode="5" horiz-adv-x="946" d="M4 -137q0 68 45.5 103.5t128.5 35.5q-20 -88 -20 -135q0 -143 172 -143q137 0 223 86.5t86 222.5q0 74 -25 130.5t-67 93.5t-109 63.5t-138.5 40.5t-166.5 24l113 600h487l21 111h82l-48 -267h-487l-57 -297q53 -7 96.5 -15t101 -24t102.5 -36.5t91.5 -53.5t77 -73.5 t50 -98.5t19.5 -127q0 -129 -63 -233t-166 -159.5t-223 -55.5q-58 0 -112.5 11t-104 34t-79.5 65t-30 97z" />
<glyph unicode="6" horiz-adv-x="1122" d="M117 489q0 111 23.5 230t74.5 236t121.5 209.5t174 150t222.5 57.5q142 0 235 -51.5t93 -144.5q0 -78 -52 -116t-135 -26q25 71 25 137q0 58 -44 96t-120 38q-101 0 -185 -76.5t-138 -203t-83.5 -286t-29.5 -329.5q0 -192 52 -280.5t175 -88.5q91 0 153.5 54t91 142.5 t28.5 204.5q0 117 -37 175.5t-117 58.5q-109 0 -147 -96l-70 20q31 106 104.5 156.5t174.5 50.5q141 0 211.5 -96t70.5 -246q0 -207 -134.5 -350.5t-336.5 -143.5q-182 0 -291.5 127.5t-109.5 390.5z" />
<glyph unicode="7" horiz-adv-x="919" d="M86 627l59 358q294 -12 435 -12q182 0 360 12v-61l-367 -566q-132 -213 -192 -389.5t-49 -285.5q-32 -6 -61 -6.5t-62.5 5t-53.5 27t-20 58.5q0 59 59.5 165.5t200.5 317.5l377 563q-126 -4 -266 -4q-205 0 -303 4l-35 -186h-82z" />
<glyph unicode="8" horiz-adv-x="1026" d="M76 289q0 35 8 68.5t18.5 60t33 55.5t37.5 47.5t48 44.5t48.5 38t54 35.5t50 30t50.5 29.5q-62 51 -101 91.5t-69.5 104t-30.5 134.5q0 152 118 248t282 96q152 0 235.5 -83.5t83.5 -201.5q0 -61 -22 -112t-70.5 -94t-80.5 -64.5t-97 -59.5q-18 -11 -27 -16 q55 -44 89 -76t72 -78.5t56.5 -98.5t18.5 -111q0 -109 -64 -203.5t-167 -148.5t-216 -54q-92 0 -172 35t-133 109t-53 174zM182 301q0 -117 74.5 -185.5t177.5 -68.5q50 0 98 17.5t88.5 50t65.5 85t25 115.5q0 53 -16.5 99t-52 88t-67 70.5t-83.5 70.5q-140 -85 -185 -122 q-125 -100 -125 -220zM573 799q14 9 47 29t48.5 30t43 29t41.5 32.5t32.5 34t27.5 39t16 42.5t7 50q0 90 -60.5 150.5t-152.5 60.5q-95 0 -163.5 -59t-68.5 -156q0 -80 46.5 -144t135.5 -138z" />
<glyph unicode="9" horiz-adv-x="1079" d="M29 -147q0 82 53.5 118t132.5 23q-25 -71 -25 -137q0 -57 44 -95t120 -38q99 0 181 74.5t134.5 198.5t81.5 279.5t29 321.5q0 182 -49.5 263t-167.5 81q-91 0 -153.5 -54t-90.5 -142.5t-28 -204.5q0 -117 36.5 -175.5t116.5 -58.5q110 0 148 96l70 -20 q-31 -100 -106 -153.5t-173 -53.5q-96 0 -161 47.5t-93.5 122.5t-28.5 172q0 207 134.5 350.5t336.5 143.5q178 0 285 -122t107 -372q0 -108 -23.5 -224.5t-73.5 -231t-119.5 -204.5t-171.5 -146t-219 -56q-141 0 -234 52t-93 145z" />
<glyph unicode=":" horiz-adv-x="557" d="M299 674q-54 0 -93.5 39.5t-39.5 93.5t39.5 93.5t93.5 39.5q55 0 95 -39.5t40 -93.5t-40 -93.5t-95 -39.5zM92 113q0 54 39.5 93.5t93.5 39.5q55 0 95 -39.5t40 -93.5t-40 -93.5t-95 -39.5q-54 0 -93.5 39.5t-39.5 93.5z" />
<glyph unicode=";" horiz-adv-x="573" d="M307 674q-54 0 -93.5 39.5t-39.5 93.5t39.5 93.5t93.5 39.5q55 0 95 -39.5t40 -93.5t-40 -93.5t-95 -39.5zM78 113q15 63 56.5 98t98.5 35q61 0 102.5 -50t41.5 -122q0 -128 -85.5 -224t-242.5 -182l-37 64q228 127 228 243q0 101 -162 138z" />
<glyph unicode="&#x3c;" d="M55 449v102l873 459l51 -113l-776 -397l776 -418l-51 -111z" />
<glyph unicode="=" d="M82 618v123h917v-123h-917zM82 250v123h917v-123h-917z" />
<glyph unicode="&#x3e;" d="M106 82l777 418l-777 397l52 113l872 -459v-102l-872 -478z" />
<glyph unicode="?" horiz-adv-x="952" d="M506 416q-85 0 -138 42.5t-53 116.5q0 45 22.5 84.5t59 69.5t80 59.5t87 63t80 72t59 94t22.5 121.5q0 87 -43.5 127.5t-134.5 40.5q-125 0 -184.5 -86.5t-59.5 -270.5q-160 0 -160 158q0 84 56 147.5t148.5 95t207.5 31.5q81 0 149 -15.5t121 -47t83 -84t30 -121.5 t-29 -126t-75.5 -95t-102.5 -70t-112 -59t-102.5 -53.5t-75.5 -61t-29 -74.5q0 -37 25 -59t77 -22q60 0 95.5 29.5t35.5 82.5l88 -10q-3 -83 -67 -131.5t-160 -48.5zM268 113q0 54 39.5 93.5t93.5 39.5q55 0 95.5 -39.5t40.5 -93.5t-40.5 -93.5t-95.5 -39.5 q-54 0 -93.5 39.5t-39.5 93.5z" />
<glyph unicode="@" horiz-adv-x="1689" d="M90 397q0 161 58 312.5t161 268.5t256 188t330 71q144 0 269.5 -50t213.5 -137t138.5 -208.5t50.5 -259.5q0 -71 -16 -148t-52.5 -155t-87.5 -139.5t-128.5 -100.5t-168.5 -39q-87 0 -127 54.5t-29 138.5h-6q-43 -78 -114 -135.5t-154 -57.5q-48 0 -91.5 19t-81.5 57.5 t-60.5 106t-22.5 155.5q0 143 39.5 256t104.5 180.5t142 102t158 34.5q151 0 199 -135q25 18 54 54t49 81h63q-35 -148 -47 -235l-72 -504q-3 -23 -2 -41t12 -28.5t33 -10.5q28 0 64 13t81 48.5t82 88.5t62 143.5t25 202.5q0 248 -161 407.5t-417 159.5q-159 0 -294.5 -61.5 t-226.5 -166t-142.5 -244t-51.5 -294.5q0 -127 45 -243t125.5 -205t202.5 -142t266 -53q78 0 166 14l6 -79q-96 -17 -184 -17q-136 0 -253.5 41t-202 112t-144.5 164.5t-89.5 199.5t-29.5 216zM610 279q0 -101 27 -148t72 -47q62 0 132 75t120.5 206t50.5 270 q0 99 -39.5 151t-104.5 52q-86 0 -151 -100.5t-94 -309.5q-13 -96 -13 -149z" />
<glyph unicode="A" horiz-adv-x="1294" d="M-102 0l10 74h170l631 1300h86l301 -1300h151l-10 -74h-522l10 74h174l-90 391h-444l-191 -391h156l-11 -74h-421zM666 1081l-263 -536h388z" />
<glyph unicode="B" horiz-adv-x="1271" d="M4 0l10 74h197l168 1206h-197l11 74h544q115 0 202 -26.5t136 -72t72.5 -101t21.5 -118.5q-2 -118 -76.5 -203t-226.5 -128v-5q135 -28 206 -113.5t69 -197.5q-3 -186 -140.5 -287.5t-422.5 -101.5h-574zM664 653h-181l-80 -573h183q179 0 263.5 84t84.5 264 q0 112 -65 168.5t-205 56.5zM729 1274h-158l-75 -541h163q170 0 239 81.5t69 252.5q0 207 -238 207z" />
<glyph unicode="C" horiz-adv-x="1282" d="M121 563q0 129 28 249t86 223.5t139.5 181t195.5 121.5t247 44q228 0 338 -122l72 104h78q-66 -191 -78 -285l-19 -139h-92q14 109 14 152q0 98 -92 156.5t-215 58.5q-93 0 -170 -37.5t-129 -103t-90.5 -146t-59.5 -174t-30.5 -178.5t-9.5 -168q0 -237 78.5 -344 t238.5 -107q149 0 260 89.5t166 242.5l84 -27q-22 -61 -51.5 -113.5t-75 -103t-100.5 -86.5t-131 -58t-164 -22q-238 0 -378 150.5t-140 441.5z" />
<glyph unicode="D" horiz-adv-x="1458" d="M4 0l10 74h197l168 1206h-195l11 74h610q151 0 261 -39.5t174.5 -113t95 -168t30.5 -214.5q0 -140 -25.5 -260t-82.5 -224.5t-143 -177.5t-214 -115t-289 -42h-608zM797 1274h-226l-168 -1194h226q262 0 394 193t132 599q0 114 -25.5 193.5t-75 124.5t-112 64.5 t-145.5 19.5z" />
<glyph unicode="E" horiz-adv-x="1269" d="M184 1280l11 74h1058l-108 -414h-62v277q0 34 -9.5 45.5t-37.5 11.5h-465l-79 -563h307l47 180h88q-48 -182 -66 -313l-20 -148h-88l26 201h-307l-76 -551h437q44 0 72 21t63.5 99.5t79.5 233.5h65q-31 -192 -39 -313l-8 -121h-1069l10 74h197l168 1206h-195z" />
<glyph unicode="F" horiz-adv-x="1157" d="M182 1280l11 74h1024l-109 -414h-61v277q0 35 -10 46t-40 11h-426l-79 -563h315l47 180h88q-47 -182 -65 -313l-21 -148h-88l27 201h-314l-78 -557h215l-10 -74h-606l10 74h199l168 1206h-197z" />
<glyph unicode="G" horiz-adv-x="1382" d="M123 559q0 240 81.5 424t245 291.5t388.5 107.5q213 0 321 -122l70 104h78q-66 -189 -78 -283l-19 -141h-92l12 88q18 119 -60 198t-228 79q-103 0 -187 -42.5t-142.5 -118t-98.5 -181.5t-59 -230.5t-19 -267.5q0 -222 79.5 -321t250.5 -99q125 0 206.5 64.5t96.5 179.5 l32 219h-237l12 80h563l-12 -80h-137l-33 -221q-21 -139 -152.5 -227.5t-340.5 -88.5q-124 0 -218 29.5t-155 80.5t-99 127t-53.5 161t-15.5 190z" />
<glyph unicode="H" horiz-adv-x="1646" d="M2 0l10 74h199l168 1206h-197l11 74h585l-10 -74h-197l-77 -561h700l80 561h-197l10 74h586l-10 -74h-197l-170 -1206h197l-10 -74h-586l10 74h197l80 565h-703l-78 -565h195l-10 -74h-586z" />
<glyph unicode="I" horiz-adv-x="751" d="M6 0l10 74h195l168 1206h-197l11 74h585l-10 -74h-197l-168 -1206h195l-10 -74h-582z" />
<glyph unicode="J" horiz-adv-x="710" d="M164 1280l10 74h586l-10 -74h-197l-141 -1014q-12 -84 -31.5 -155.5t-50.5 -137.5t-75 -116t-101 -87.5t-132 -57t-165 -19.5q-6 0 -19.5 1t-19.5 1l10 76h27q174 0 249.5 107.5t114.5 387.5l141 1014h-196z" />
<glyph unicode="K" horiz-adv-x="1398" d="M985 1280l10 74h451l-10 -74h-166l-539 -516l451 -690h141l-10 -74h-543l10 74h170l-389 600h-74l-84 -600h197l-10 -74h-586l10 74h197l170 1206h-197l11 74h585l-10 -74h-197l-73 -524h100l545 524h-160z" />
<glyph unicode="L" horiz-adv-x="1165" d="M2 0l10 74h199l168 1206h-197l11 74h585l-10 -74h-197l-168 -1200h377q30 0 49 6.5t39 24t41.5 60t46.5 101.5t64 162h65q-43 -219 -57 -328l-14 -106h-1012z" />
<glyph unicode="M" horiz-adv-x="1771" d="M4 0l10 74h197l168 1208h-195l11 72h428l215 -1057l508 1057h456l-10 -74h-201l-168 -1206h195l-10 -74h-576l10 74h189l166 1183l-604 -1257h-88l-248 1208l-158 -1134h195l-11 -74h-479z" />
<glyph unicode="N" horiz-adv-x="1536" d="M1094 1280l10 74h479l-10 -74h-197l-180 -1290h-88l-651 1118l-146 -1034h199l-10 -74h-484l11 74h196l164 1155q-24 30 -54.5 40.5t-103.5 10.5h-71l10 74h369l614 -1055l137 981h-194z" />
<glyph unicode="O" horiz-adv-x="1429" d="M121 553q0 133 25 253t80 226t135.5 183.5t198 122t261.5 44.5q258 0 389 -142.5t131 -393.5q0 -135 -22.5 -257.5t-75 -237t-131 -197.5t-199.5 -133t-272 -50q-112 0 -200.5 29.5t-148 81t-98.5 125.5t-56 159.5t-17 186.5zM334 465q0 -225 74.5 -322.5t232.5 -97.5 q107 0 192 49t140 129.5t91 192t51 229t15 246.5q0 217 -77 317.5t-232 100.5q-127 0 -223.5 -68.5t-152.5 -188t-83.5 -267t-27.5 -320.5z" />
<glyph unicode="P" horiz-adv-x="1193" d="M4 0l10 74h197l168 1206h-195l11 74h518q127 0 220.5 -29.5t145 -80.5t75.5 -110.5t24 -129.5q0 -68 -17 -132.5t-56 -126t-96 -107.5t-145 -73.5t-196 -27.5q-19 0 -37 1.5t-27 3.5l-8 1l10 73q29 -4 60 -4q145 0 225 113t80 311q0 33 -5.5 62.5t-23 63t-46 57 t-79.5 39.5t-119 16h-127l-168 -1200h215l-10 -74h-604z" />
<glyph unicode="Q" horiz-adv-x="1443" d="M182 -274q36 38 71 66.5t80 53.5t70.5 38t89 40t89.5 39q65 30 96.5 45.5t84 44.5t84 53.5t68.5 61.5t66 80q84 120 124 285t40 337q0 235 -74.5 337t-228.5 102q-114 0 -203 -51.5t-144 -134.5t-90.5 -198.5t-49 -232.5t-13.5 -248q0 -117 20 -182t59.5 -90t108.5 -25 l-14 -75q-387 0 -387 493q0 129 25.5 246.5t81.5 222.5t137.5 181.5t201 121.5t265.5 45q264 0 392 -146.5t128 -412.5q0 -209 -73 -377t-189 -284q-53 -54 -116.5 -97.5t-109 -65.5t-120 -54t-109.5 -49q71 -11 175 -58.5t192 -88t131 -40.5q60 0 92.5 40t58.5 124l74 -16 q-19 -86 -49.5 -143t-71 -86.5t-83 -40.5t-97.5 -11q-72 0 -147.5 23t-138 56t-118.5 65.5t-107.5 55.5t-86.5 23q-90 0 -231 -131z" />
<glyph unicode="R" horiz-adv-x="1310" d="M4 0l10 74h197l168 1206h-195l11 74h548q410 0 410 -312q0 -135 -91 -241.5t-267 -134.5v-9q59 -21 100.5 -55.5t63.5 -78.5t32.5 -85.5t14.5 -93.5q2 -32 2.5 -79t1.5 -74.5t6 -56t18.5 -41.5t36.5 -13q66 0 105 164l73 -17q-29 -133 -84 -189t-147 -56q-41 0 -73.5 10 t-54 27t-36.5 42.5t-23.5 53t-13.5 63t-7 67.5t-4 71v9.5t-0.5 9t-0.5 9.5q-3 55 -7 90t-16.5 77t-32 66t-55.5 41t-86 17h-127l-78 -561h197l-10 -74h-586zM739 1274h-168l-77 -559h163q151 0 224 96t73 266q0 97 -48.5 147t-166.5 50z" />
<glyph unicode="S" horiz-adv-x="1120" d="M63 -10q34 158 50 264l28 201h92q-20 -140 -20 -181q0 -93 81 -159t218 -66q138 0 216.5 65.5t78.5 172.5q0 55 -21 100t-56 77t-81 59.5t-96.5 53t-101 52.5t-96.5 61.5t-81 76t-56 101.5t-21 133q0 162 124.5 271.5t317.5 109.5q192 0 291 -114l65 96h80 q-66 -186 -76 -264l-22 -160h-92q16 110 16 166q0 77 -68.5 139t-191.5 62q-128 0 -205.5 -65.5t-77.5 -174.5q0 -55 21 -99.5t57 -77t82.5 -60.5t98 -53t102.5 -51.5t97.5 -60t82.5 -73.5t57 -97t21 -126q0 -74 -33 -145t-92 -127.5t-149 -91t-195 -34.5q-114 0 -192 36 t-121 81l-50 -98h-82z" />
<glyph unicode="T" horiz-adv-x="1314" d="M285 0l10 74h197l167 1200h-241q-37 0 -59 -9t-50 -45.5t-56.5 -99.5t-74.5 -180h-65q43 221 55 307l14 107h1190l-84 -414h-59l-25 250q-5 46 -22.5 65t-55.5 19h-274l-168 -1200h197l-11 -74h-585z" />
<glyph unicode="U" horiz-adv-x="1521" d="M147 1280l11 74h585l-10 -74h-196l-88 -623q-31 -216 -31 -278q0 -54 6.5 -97.5t26 -88.5t52 -75.5t88 -49.5t130.5 -19q200 0 312 123.5t141 337.5l106 770h-197l11 74h489l-10 -74h-197l-106 -774q-74 -535 -563 -535q-124 0 -218 33.5t-150.5 95t-84 141t-27.5 177.5 q0 27 2.5 54.5t5.5 48.5t9.5 61.5t11.5 72.5l86 625h-195z" />
<glyph unicode="V" horiz-adv-x="1333" d="M49 1280l10 74h549l-10 -74h-170l250 -1042q26 48 91.5 167.5t91.5 169.5t76.5 148t73.5 154.5t53 134t44 142t20 126.5h-165l10 74h418l-11 -74h-161q-5 -62 -19.5 -127t-32 -122.5t-53.5 -138.5t-64 -140t-84.5 -164.5t-95 -174t-115.5 -206.5t-126 -227h-82l-318 1300 h-180z" />
<glyph unicode="W" horiz-adv-x="2029" d="M745 1280l11 74h549l-11 -74h-170l248 -1032q18 32 66 118t66.5 118.5t59.5 108t58.5 110.5t50 101t47.5 104t37 94.5t33 97.5t21 88.5t14 91.5h-166l10 74h418l-10 -74h-162q-5 -62 -19.5 -127t-32 -122.5t-53.5 -138.5t-64 -140t-84.5 -164.5t-95 -174t-115.5 -206.5 t-126 -227h-82l-188 768l-426 -768h-82l-318 1300h-180l10 74h549l-10 -74h-170l250 -1034l346 628l-98 406h-181z" />
<glyph unicode="X" horiz-adv-x="1308" d="M887 1280l10 74h446l-10 -74h-164l-405 -547l305 -659h172l-10 -74h-529l11 74h143l-229 495l-369 -495h170l-10 -74h-447l11 74h165l437 588l-287 618h-191l11 74h559l-10 -74h-158l213 -455l336 455h-170z" />
<glyph unicode="Y" horiz-adv-x="1273" d="M950 1280l11 74h421l-10 -74h-141q-76 -73 -149 -160.5t-151 -201.5t-135.5 -249t-78.5 -266l-47 -329h198l-10 -74h-588l11 74h196l39 266q35 234 -36 461t-232 479h-176l10 74h561l-10 -74h-166q77 -113 137 -258q72 -179 101 -340q63 157 159 297q116 173 248 301 h-162z" />
<glyph unicode="Z" horiz-adv-x="1236" d="M8 0l8 61l963 1213h-510q-28 0 -45 -5t-38.5 -22t-42.5 -54t-48.5 -97t-65.5 -156h-61q39 207 53 307l15 107h999l-8 -60l-973 -1214h553q51 0 79.5 22.5t63.5 92.5t99 239h65q-43 -219 -57 -328l-15 -106h-1034z" />
<glyph unicode="[" horiz-adv-x="622" d="M53 -467l240 1937h375l-11 -73h-217l-219 -1790h217l-10 -74h-375z" />
<glyph unicode="\" horiz-adv-x="929" d="M608 -467l-440 1937h131l442 -1937h-133z" />
<glyph unicode="]" horiz-adv-x="622" d="M-53 -393h215l219 1790h-217l10 73h375l-240 -1937h-372z" />
<glyph unicode="^" horiz-adv-x="1132" d="M98 420l414 934h127l414 -932l-133 -2l-347 774l-340 -774h-135z" />
<glyph unicode="_" horiz-adv-x="1312" d="M55 0h1024v-129h-1024v129z" />
<glyph unicode="`" horiz-adv-x="1024" d="M563 1077l-221 320q-20 30 -20 59q0 31 26 55.5t64 24.5q62 0 80 -59l120 -377z" />
<glyph unicode="a" d="M309 -29q-117 0 -183.5 92.5t-66.5 255.5q0 117 35.5 230t98.5 202t156.5 144t201.5 55q160 0 209 -141q70 61 104 141h72q-43 -200 -86 -469t-43 -354q0 -29 7 -41t24 -12q33 0 70 44t61 94.5t41 102.5l73 -16q-14 -37 -23 -60t-26 -60.5t-32.5 -61t-39 -52t-48 -44.5 t-57 -27.5t-69.5 -11.5q-149 0 -149 165q0 52 6 89h-8q-136 -265 -328 -265zM244 233q0 -95 20.5 -138.5t69.5 -43.5q109 0 217 182q64 108 105.5 239.5t41.5 223.5q0 73 -33.5 123.5t-109.5 50.5q-62 0 -114.5 -40t-88 -105.5t-60.5 -150t-36.5 -171t-11.5 -170.5z" />
<glyph unicode="b" horiz-adv-x="1056" d="M51 -29q67 358 142.5 839t72.5 587h-178l10 73h355q0 -40 -8.5 -120.5t-21.5 -176t-25 -176t-23.5 -154.5t-12.5 -79q-13 -69 -16 -80h8q31 53 58.5 91t70.5 82.5t97 68.5t116 24q128 0 199.5 -94t71.5 -254q0 -115 -37 -228t-101.5 -202.5t-161.5 -145t-208 -55.5 q-175 0 -228 138q-77 -59 -108 -138h-72zM289 229q0 -81 39 -129.5t116 -48.5q103 0 182 94.5t117.5 236t38.5 300.5q0 97 -28.5 142.5t-87.5 45.5q-83 0 -189 -135q-79 -105 -133.5 -251.5t-54.5 -254.5z" />
<glyph unicode="c" horiz-adv-x="886" d="M68 371q0 115 30 218t88 184t151 129t210 48q127 0 203.5 -52.5t76.5 -139.5q0 -66 -47.5 -109t-140.5 -43q25 98 25 154q0 125 -117 125q-88 0 -157 -82.5t-104.5 -216t-35.5 -291.5q0 -130 40.5 -189t129.5 -59q181 0 280 227l78 -24q-60 -134 -149.5 -206.5 t-227.5 -72.5q-164 0 -248.5 103.5t-84.5 296.5z" />
<glyph unicode="d" horiz-adv-x="1126" d="M322 -29q-122 0 -192.5 93t-70.5 255q0 117 37 230t101 202t159 144t203 55q135 0 201 -90q4 30 13 91t14 95t12 86t11.5 85t8.5 70.5t6 64t2 45.5h-180l10 73h357q0 -135 -93.5 -695.5t-93.5 -647.5q0 -29 7 -41t24 -12q33 0 70 44t61 94.5t41 102.5l74 -16 q-14 -37 -23 -60t-26 -60.5t-32.5 -61t-39 -52t-48 -44.5t-57 -27.5t-69.5 -11.5q-69 0 -109.5 39t-40.5 122q0 47 9 93h-9q-26 -49 -56.5 -91t-72.5 -83.5t-96 -66t-112 -24.5zM244 238q0 -95 23.5 -141t80.5 -46q61 0 129.5 69t121 167.5t87.5 210.5t35 196 q0 82 -38.5 129t-115.5 47q-82 0 -147.5 -66t-102 -167t-55 -204.5t-18.5 -194.5z" />
<glyph unicode="e" horiz-adv-x="882" d="M68 365q0 88 17 170.5t55.5 158.5t94 132.5t139 90t185.5 33.5q38 0 71.5 -5t67.5 -18t58.5 -33.5t39.5 -54.5t15 -77q0 -52 -21.5 -95t-48 -69.5t-81.5 -54t-89 -40t-104 -35.5q-14 -5 -21 -7q-152 -53 -198 -99q-2 -27 -2 -71q0 -126 42.5 -185t135.5 -59 q90 0 159.5 63t112.5 164l78 -24q-60 -134 -150 -206.5t-229 -72.5q-164 0 -245.5 102.5t-81.5 291.5zM541 885q-60 0 -110 -38.5t-83 -103.5t-54.5 -136t-33.5 -150q45 37 168 78q52 17 86.5 34.5t66 45t47 68.5t15.5 97q0 105 -102 105z" />
<glyph unicode="f" horiz-adv-x="630" d="M53 848l10 74h156q1 21 4.5 54t3.5 38q18 228 120.5 355.5t291.5 127.5q69 0 130 -17.5t102.5 -54.5t41.5 -88q0 -66 -54 -100.5t-136 -34.5q25 76 25 144q0 41 -30.5 63.5t-86.5 22.5q-68 0 -112.5 -39t-74.5 -137t-43 -267l-6 -67h273l-11 -74h-266q-50 -609 -88 -846 q-14 -88 -33.5 -158.5t-52 -135.5t-74 -108.5t-102 -69.5t-135.5 -26q-107 0 -179.5 39.5t-72.5 114.5q0 65 59.5 102t128.5 29q-30 -67 -30 -125q0 -94 100 -94q87 0 135.5 99t83.5 329q10 68 19.5 151.5t19 186.5t15.5 172t15.5 187.5t12.5 152.5h-160z" />
<glyph unicode="g" horiz-adv-x="937" d="M74 -106l82 -27q-2 -2 -6.5 -5t-14.5 -14t-18 -24t-14.5 -34.5t-6.5 -45.5q0 -65 82 -112.5t230 -47.5q85 0 156.5 19t118 59.5t46.5 95.5q0 47 -30 78.5t-79.5 45t-112 24.5t-128.5 16.5t-128.5 21.5t-112 39t-79.5 70t-30 113q0 117 164 221q-70 76 -70 209 q0 153 105 253.5t284 100.5q153 0 236 -71q43 43 43 100q0 64 -56 108q49 27 99 27q49 0 81.5 -28.5t32.5 -86.5q0 -16 -4.5 -30.5t-15 -28.5t-19.5 -23.5t-27.5 -22.5t-28.5 -19.5t-33.5 -20t-31.5 -18.5q56 -75 56 -183q0 -167 -111 -259.5t-289 -92.5q-121 0 -194 43 q-105 -65 -105 -127q0 -37 31 -61.5t81 -34.5t114.5 -19t132 -15t132 -24t114.5 -44.5t81 -77.5t31 -121q0 -65 -27.5 -119t-72.5 -90t-105.5 -60.5t-124 -35.5t-129.5 -11q-102 0 -193.5 26t-152.5 79.5t-61 122.5q0 45 19.5 85.5t38.5 58.5zM444 362q102 0 158.5 86.5 t56.5 245.5q0 195 -151 195q-95 0 -148 -90t-53 -248q0 -189 137 -189z" />
<glyph unicode="h" horiz-adv-x="1138" d="M68 0q31 227 85 570t83.5 547.5t29.5 279.5h-178l10 73h355q-1 -126 -49.5 -443.5t-94.5 -512.5h4q18 42 32.5 73t40.5 80t51 84t61.5 75t74 65t85.5 42t100 17q186 0 186 -215q0 -101 -52 -324t-52 -284q0 -30 6.5 -41.5t23.5 -11.5q43 0 90 68.5t82 172.5l74 -16 q-59 -165 -126 -241t-167 -76q-69 0 -111 39t-42 122q0 64 49 287t49 318q0 57 -15.5 82.5t-54.5 25.5q-74 0 -156.5 -101.5t-156.5 -265.5q-113 -253 -141 -489h-176z" />
<glyph unicode="i" horiz-adv-x="610" d="M360 1143q-50 0 -77 29.5t-27 76.5q0 54 33.5 93.5t93.5 39.5q50 0 78 -29t28 -77q0 -56 -36 -94.5t-93 -38.5zM137 133q0 58 48 350.5t48 364.5h-180l10 74h357q0 -85 -56.5 -428.5t-56.5 -378.5q0 -41 33 -41q32 0 67.5 43t61 95t41.5 103l74 -16q-56 -157 -122.5 -237 t-168.5 -80q-69 0 -112.5 38.5t-43.5 112.5z" />
<glyph unicode="j" horiz-adv-x="518" d="M348 1143q-50 0 -77 29.5t-27 76.5q0 54 33.5 93.5t93.5 39.5q50 0 78 -29t28 -77q0 -56 -36 -94.5t-93 -38.5zM125 86l106 762h-180l10 74h355l-121 -869q-13 -89 -31.5 -162t-51.5 -143.5t-76.5 -118.5t-107.5 -77t-143 -29q-59 0 -108 10l10 72q33 -8 74 -8 q108 0 168 115t96 374z" />
<glyph unicode="k" horiz-adv-x="1032" d="M68 0q31 220 86 572t83.5 553.5t28.5 271.5h-178l10 73h355q0 -50 -12 -153.5t-25.5 -196.5t-40.5 -270.5t-41 -271.5h59q73 126 129 200q63 84 125.5 128t134.5 44q74 0 118 -37t44 -104q0 -61 -45.5 -104t-130.5 -43q8 19 16.5 61t8.5 76q0 69 -39 69q-50 0 -132.5 -94 t-142.5 -205q58 -11 98.5 -39.5t62 -71t32 -81.5t16.5 -92q16 -140 25 -166q12 -31 39 -31q33 0 82.5 86.5t62.5 140.5l74 -16q-105 -317 -279 -317q-35 0 -62 9.5t-45 31t-29.5 42.5t-19.5 56.5t-11.5 60.5t-8.5 66q0 4 -0.5 6.5t-1 5.5t-0.5 6q-5 46 -9.5 73t-15 62.5 t-25.5 55t-41 33.5t-61 14h-38q-60 -348 -82 -504h-174z" />
<glyph unicode="l" horiz-adv-x="565" d="M90 143q0 80 86 606.5t86 647.5h-166l10 73h343q0 -110 -47.5 -418.5t-94.5 -592t-47 -332.5q0 -29 7 -41t24 -12q40 0 86.5 63.5t85.5 177.5l74 -16q-54 -157 -123.5 -237t-169.5 -80q-70 0 -112 39t-42 122z" />
<glyph unicode="m" horiz-adv-x="1761" d="M104 0q72 447 95.5 610t23.5 238h-166l11 74h340q0 -23 -1.5 -46.5t-5.5 -54t-7 -51.5t-10 -61t-11 -58.5t-13.5 -68.5t-13.5 -68h4q41 96 82.5 169t95.5 136.5t120.5 97t142.5 33.5q95 0 137.5 -48.5t42.5 -151.5q0 -96 -41 -236h6q36 81 67.5 140t73 118t84 95.5 t98 59.5t117.5 23q191 0 191 -213q0 -101 -52.5 -325.5t-52.5 -284.5q0 -29 7 -41t24 -12q40 0 86 63t86 178l74 -16q-56 -161 -125 -239t-168 -78q-69 0 -111.5 38.5t-42.5 120.5q0 67 49.5 289t49.5 318q0 57 -16 82.5t-56 25.5q-85 0 -184.5 -141.5t-176.5 -347.5 q-74 -206 -94 -367h-174q2 63 57.5 353.5t55.5 396.5q0 56 -15 81t-53 25q-73 0 -158.5 -105t-158.5 -270q-109 -248 -137 -481h-177z" />
<glyph unicode="n" horiz-adv-x="1175" d="M104 0q100 621 112 737q7 67 7 111h-166l11 74h340q0 -23 -1.5 -46.5t-5.5 -54t-7 -51.5t-10 -61t-11 -58.5t-13.5 -68.5t-13.5 -68h4q18 42 32.5 73t40.5 80t51 84t61.5 75t74 65t85.5 42t100 17q186 0 186 -215q0 -101 -52 -324t-52 -284q0 -53 30 -53q40 0 86.5 64 t85.5 177l74 -16q-55 -159 -124.5 -238t-168.5 -79q-69 0 -111 39t-42 122q0 64 49 287t49 318q0 57 -15.5 82.5t-54.5 25.5q-76 0 -161 -106.5t-158 -274.5q-108 -248 -135 -475h-177z" />
<glyph unicode="o" horiz-adv-x="1019" d="M68 354q0 129 30 236t90 188.5t157.5 126.5t225.5 45q177 0 265 -102t88 -273q0 -176 -55 -310.5t-171 -214t-280 -79.5q-122 0 -202 51.5t-114 135t-34 196.5zM250 289q0 -116 43 -184t133 -68q82 0 145 57.5t98 149.5t52.5 192t17.5 201q0 114 -42.5 181t-133.5 67 q-72 0 -129 -43.5t-90.5 -109t-55.5 -149.5t-30 -156t-8 -138z" />
<glyph unicode="p" horiz-adv-x="1101" d="M53 -393q18 132 65.5 427t81 521t33.5 293h-180l10 74h355q0 -88 -31 -250h8q148 278 348 278q126 0 197.5 -92.5t71.5 -255.5q0 -117 -37 -230t-102 -202t-162.5 -144t-208.5 -55q-145 0 -203 101q-34 -190 -68 -465h168l-10 -74h-512l10 74h166zM340 229 q0 -178 141 -178q69 0 128 43.5t98 112t67 153.5t40.5 167.5t12.5 154.5q0 100 -27 144t-83 44q-96 0 -209 -165q-72 -108 -120 -242t-48 -234z" />
<glyph unicode="q" horiz-adv-x="1044" d="M59 319q0 117 36.5 230t100.5 202t160 144t207 55q177 0 225 -139q68 59 101 139h72q-55 -303 -128.5 -755t-82.5 -588h172l-11 -74h-512l11 74h161q21 207 80 540q7 44 17 82h-6q-71 -129 -153.5 -193.5t-186.5 -64.5q-123 0 -193 92.5t-70 255.5zM244 233 q0 -96 26 -139t80 -43q87 0 182 123q82 104 138.5 255.5t56.5 260.5q0 180 -156 180q-96 0 -172 -90.5t-115.5 -235t-39.5 -311.5z" />
<glyph unicode="r" horiz-adv-x="856" d="M104 0q69 427 94 600t25 248h-166l11 74h340q0 -49 -8.5 -114.5t-16.5 -109.5t-29 -151h4q81 216 161 309.5t192 93.5q64 0 112.5 -33.5t48.5 -107.5q0 -76 -53 -122t-153 -46l6.5 26t9 38t7 41.5t3.5 46.5q0 32 -8 45.5t-29 13.5q-81 0 -188 -234q-71 -153 -127 -346 t-59 -272h-177z" />
<glyph unicode="s" horiz-adv-x="862" d="M27 166q0 58 45 90.5t112 32.5q-19 -105 36.5 -177.5t160.5 -72.5q78 0 139.5 39.5t61.5 111.5q0 45 -25.5 82.5t-66.5 64t-90.5 51.5t-99.5 51.5t-91 57.5t-66.5 76t-25.5 101q0 118 93.5 197t260.5 79q132 0 221.5 -49t89.5 -127q0 -60 -48 -96.5t-128 -38.5 q17 45 17 98q0 65 -38.5 105.5t-117.5 40.5q-90 0 -148.5 -38t-58.5 -102q0 -41 26 -74.5t67.5 -58t92 -48t100.5 -51t91.5 -60t67.5 -81t26 -108.5q0 -52 -18 -100t-57.5 -92.5t-115.5 -71.5t-180 -27q-141 0 -237 54t-96 141z" />
<glyph unicode="t" horiz-adv-x="673" d="M121 156q0 22 3.5 55.5t12.5 95t18.5 125t28 183.5t35.5 233h-158l13 74q43 2 74.5 8.5t58 21.5t44.5 34t37 53.5t33.5 71t34.5 95.5h90q-31 -175 -43 -284h250l-12 -74h-248q-98 -652 -98 -705q0 -31 16 -50t43 -19q93 0 178 241l74 -16q-42 -124 -92 -196.5 t-97.5 -96.5t-107.5 -24q-36 0 -67 8.5t-59.5 27.5t-45 54.5t-16.5 83.5z" />
<glyph unicode="u" horiz-adv-x="1181" d="M125 162q0 69 49 340.5t49 345.5h-164l11 74h340q0 -71 -54.5 -378.5t-54.5 -381.5q0 -101 76 -101q69 0 153 104.5t156 268.5q112 254 139 488h176q-17 -103 -40 -239t-34 -202.5t-23 -144t-16.5 -125t-4.5 -84.5q0 -30 6.5 -41.5t23.5 -11.5q40 0 86.5 63.5t85.5 177.5 l74 -16q-55 -159 -124.5 -238t-168.5 -79q-69 0 -111 39t-42 122q0 34 7 74.5t20.5 97t19.5 86.5h-4q-27 -61 -52 -110.5t-67.5 -112.5t-85.5 -105.5t-103 -72t-124 -29.5q-95 0 -147 51t-52 140z" />
<glyph unicode="v" horiz-adv-x="1005" d="M201 215q0 64 30.5 267.5t30.5 283.5q0 49 -7.5 65.5t-23.5 16.5q-36 0 -75.5 -64t-75.5 -178l-74 17q51 165 118 241t161 76q34 0 59 -9t47.5 -32t34.5 -67.5t12 -110.5q0 -62 -30.5 -251.5t-30.5 -268.5q0 -75 17 -107.5t59 -32.5q55 0 138.5 80t145.5 197 q97 190 97 293q0 199 -193 172q0 68 35 107.5t110 39.5q43 0 74.5 -18t48 -49.5t24 -66t7.5 -75.5q0 -148 -74 -315q-38 -88 -85.5 -165t-107 -144.5t-132 -106.5t-148.5 -39q-95 0 -143.5 58t-48.5 186z" />
<glyph unicode="w" horiz-adv-x="1538" d="M6 623q49 164 117 240.5t162 76.5q153 0 153 -209q0 -75 -30.5 -262t-30.5 -279q0 -129 51 -129q35 0 80.5 49.5t74 96.5t52.5 96q111 216 147 367l47 252h172q-12 -60 -26 -144q-76 -440 -76 -577q0 -140 78 -140q66 0 146.5 77.5t146.5 199.5q96 176 96 305 q0 84 -48.5 129t-143.5 31q0 67 35 107t104 40q46 0 79 -18t50 -49.5t24 -65.5t7 -74q0 -147 -74 -317q-38 -89 -84.5 -165.5t-107 -144t-136.5 -106.5t-158 -39q-95 0 -139.5 58t-44.5 196q0 24 4 90h-6q-50 -108 -109 -190q-56 -76 -110.5 -115t-130.5 -39 q-176 0 -176 232q0 79 30.5 281t30.5 284q0 47 -7 63.5t-22 16.5q-38 0 -79 -66.5t-74 -175.5z" />
<glyph unicode="x" horiz-adv-x="1103" d="M72 623q16 47 33 86t44.5 84t59 75.5t75.5 51t95 20.5q78 0 116.5 -45.5t67.5 -161.5l29 -129q66 135 127 221q82 115 194 115q63 0 104.5 -39t41.5 -106q0 -69 -53.5 -118.5t-126.5 -33.5q11 22 21.5 68t5.5 90.5t-36 44.5q-92 0 -249 -367q17 -79 55 -225 q29 -110 45 -145t37 -35q31 0 69.5 49.5t63.5 104t33 87.5l73 -16q-21 -56 -37.5 -93t-44.5 -84t-57 -74t-71 -46.5t-91 -19.5q-74 0 -116.5 44.5t-69.5 161.5l-27 123q-71 -143 -123 -215q-82 -114 -194 -114q-61 0 -103.5 37.5t-42.5 103.5q0 69 52 119.5t129 36.5 q-13 -21 -23.5 -68.5t-4.5 -91t36 -43.5q93 0 246 358q-28 122 -56 225q-37 144 -47 164q-12 25 -33 25q-34 0 -73 -48t-64 -100.5t-37 -93.5z" />
<glyph unicode="y" horiz-adv-x="1007" d="M2 623q74 317 256 317q62 0 97.5 -41.5t74.5 -153.5q31 -94 50 -154.5t47.5 -193.5t35.5 -247q100 97 172 212q103 167 103 269q0 199 -195 172q0 68 35 107.5t110 39.5q43 0 74.5 -18t48 -49.5t24 -66t7.5 -75.5q0 -140 -74 -292q-113 -232 -303 -394q-3 -234 -108 -386 t-275 -152q-93 0 -160 38.5t-67 122.5q0 58 48.5 99t143.5 37q-10 -30 -16 -62.5t-7 -72.5t18 -65.5t59 -25.5q56 0 100.5 36t68.5 90t36 107t12 97q0 261 -146 748q-29 96 -46 125.5t-38 29.5q-26 0 -56 -54t-56 -161z" />
<glyph unicode="z" horiz-adv-x="919" d="M119 614q0 135 7 175q18 112 108 145q45 16 108 16q152 0 418 -78q27 39 59 101l80 -29q-22 -45 -49.5 -88t-70 -93.5t-67.5 -80t-86 -91t-79.5 -79.5t-91.5 -88q-167 -155 -234 -227q16 -5 60.5 -20t58 -19t48 -15t48.5 -14.5t40.5 -10t42.5 -8.5t37 -4t40 -2 q64 0 103 41t83 170l74 -16q-29 -81 -56 -135t-65 -101t-89.5 -69.5t-117.5 -22.5q-32 0 -65 2.5t-58 5.5t-58 10t-51 11t-53 14.5t-46.5 14t-48.5 16t-44 14.5q-44 -60 -63 -94l-74 37q21 37 45.5 72t58.5 75t56 65.5t68.5 71.5t64.5 63t74 70.5t69 65.5q172 164 246 246 q-198 68 -364 68q-59 0 -75.5 -35t-14.5 -150h-76z" />
<glyph unicode="{" horiz-adv-x="704" d="M152 -246q0 86 25 178.5t50 183.5t25 173q0 81 -40 132.5t-128 51.5h-64l11 76h63q67 0 114.5 29.5t70.5 79.5t33 101.5t10 110.5q0 35 -4.5 102t-4.5 101q0 109 27.5 201t90 153.5t151.5 61.5q72 0 111 -39t36 -107l-76 -4q0 35 -17 56.5t-52 21.5q-59 0 -89 -57 t-30 -139q0 -39 19.5 -130t19.5 -143q0 -150 -77 -270t-218 -170q104 -39 156.5 -121.5t52.5 -193.5q0 -59 -21.5 -126.5t-48 -119.5t-48 -120.5t-21.5 -129.5q0 -113 79 -113q30 0 56 21t32 61l74 -14q-10 -57 -54.5 -98t-117.5 -41q-103 0 -149.5 65t-46.5 176z" />
<glyph unicode="|" horiz-adv-x="581" d="M219 -467v1937h125v-1937h-125z" />
<glyph unicode="}" horiz-adv-x="702" d="M182 53q0 102 33 192.5t100.5 162t161.5 106.5q-104 39 -156.5 121.5t-52.5 193.5q0 56 22 121t48 115t48 116t22 124q0 112 -80 112q-30 0 -56 -21t-32 -61l-74 15q10 57 54.5 98t117.5 41q103 0 150 -65.5t47 -176.5q0 -66 -16 -137t-34.5 -123.5t-34.5 -121.5 t-16 -132q0 -81 40 -132.5t128 -51.5h64l-11 -76h-63q-54 0 -95.5 -21.5t-66 -55t-39.5 -80.5t-20.5 -91.5t-5.5 -93.5q0 -35 4 -102t4 -101q0 -109 -27.5 -200.5t-90 -153t-151.5 -61.5q-72 0 -111 38.5t-36 106.5l76 4q0 -35 17 -56.5t52 -21.5q59 0 89 57t30 140 q0 39 -19.5 129.5t-19.5 142.5z" />
<glyph unicode="~" horiz-adv-x="1267" d="M199 360l-76 103l6 7q6 6 19 17.5t31 25.5t44.5 28t57.5 25t72.5 18.5t86.5 7.5q47 0 100.5 -18.5t94.5 -41t91 -41t89 -18.5q27 0 53 4.5t45 10t38 16t30 17.5t24 19.5t17.5 17t12 14.5t6.5 8q0 1 1 2l76 -103l-12 -12q-11 -12 -38 -32t-62 -38.5t-91 -32.5t-118 -14 q-58 0 -126 30t-132 59.5t-111 29.5q-28 0 -54 -4.5t-45 -10t-38 -16t-30.5 -17.5t-24.5 -19.5t-17.5 -17t-12 -14.5t-6.5 -8v-2h-1z" />
<glyph unicode="&#xa1;" horiz-adv-x="524" d="M297 676q-55 0 -95 39.5t-40 93.5t40 93.5t95 39.5q54 0 93.5 -39.5t39.5 -93.5t-39.5 -93.5t-93.5 -39.5zM20 -369q0 56 98.5 449.5t98.5 400.5h66q-23 -741 -37 -837q-7 -53 -44 -79t-75 -26q-41 0 -74 23t-33 69z" />
<glyph unicode="&#xa2;" d="M117 389q0 119 31 226t89 193t151 140.5t208 63.5l25 151h81l-24 -151q58 -3 107.5 -15.5t91.5 -35t66 -59.5t24 -85q0 -67 -49 -110t-140 -43q18 53 23 97t-2.5 84.5t-40.5 66t-90 30.5l-140 -895q107 3 186.5 70t129.5 174l80 -25q-45 -90 -97 -150t-131 -99.5 t-180 -43.5l-22 -149h-82l22 151q-157 17 -237 124t-80 290zM301 326q0 -234 145 -271l140 883q-76 -19 -134.5 -88.5t-89.5 -163.5t-46 -185.5t-15 -174.5z" />
<glyph unicode="&#xa3;" d="M154 508l12 78h201l49 194q19 77 49 140t78 119t120.5 88t163.5 32q114 0 189.5 -52t75.5 -142q0 -69 -49 -108.5t-142 -35.5q25 76 25 140q0 139 -105 139q-79 0 -131.5 -79t-93.5 -247l-47 -188h258l-12 -78h-265l-28 -117q-33 -132 -84 -223q6 -4 32 -19t34 -19.5 t30.5 -17t33.5 -17t31.5 -12.5t34.5 -11t32.5 -6t35.5 -3q33 0 57.5 9.5t49 34t40 76t21.5 128.5q131 0 131 -118q0 -97 -80.5 -159.5t-193.5 -62.5q-28 0 -54.5 3.5t-54.5 13.5t-45.5 16t-49 24t-41.5 23.5t-45 28.5t-40 26q-109 -135 -273 -135q-88 0 -126.5 38.5 t-38.5 88.5q0 53 36.5 90.5t86.5 52.5t106 15q45 0 108 -18q9 29 43 157l27 113h-192zM115 37q46 0 77.5 30.5t59.5 100.5q-46 16 -88 16q-66 0 -101.5 -23.5t-35.5 -62.5q0 -28 24 -44.5t64 -16.5z" />
<glyph unicode="&#xa5;" d="M176 555l12 78h246l-194 424h-125l10 73h416l-11 -73h-100l178 -410l299 410h-121l11 73h321l-10 -73h-104l-310 -424h262l-12 -78h-301l-29 -172h301l-12 -78h-301l-37 -231h144l-11 -74h-462l10 74h145l37 231h-293l12 78h293l29 172h-293z" />
<glyph unicode="&#xa6;" horiz-adv-x="600" d="M215 535v874h133v-874h-133zM215 322h133v-875h-133v875z" />
<glyph unicode="&#xa7;" horiz-adv-x="970" d="M311 -143q0 96 -26 273.5t-52 373.5t-26 336q0 84 10.5 156.5t39 146t74.5 124.5t122.5 83t177.5 32q136 0 222.5 -56t86.5 -148q0 -28 -8 -52.5t-27 -47t-56 -34.5t-89 -8q13 48 17 91.5t-4 88.5t-43 72t-95 27q-122 0 -185 -116.5t-63 -373.5q0 -133 24 -304.5 t48 -322.5t24 -233q0 -46 -6.5 -78.5t-24.5 -63t-56.5 -41t-96.5 0.5q12 37 12 74zM193 -150q-15 -41 -22 -77t-4.5 -72.5t18 -62.5t50.5 -42t89 -16q311 0 311 389q0 123 -49 441.5t-49 453.5q0 125 28 217h86q-24 -96 -24 -192q0 -127 49 -443t49 -456q0 -238 -97 -362 t-304 -124q-142 0 -230 55t-88 136q0 75 47.5 117t139.5 38z" />
<glyph unicode="&#xa8;" horiz-adv-x="1024" d="M719 1145q-46 0 -71 27.5t-25 70.5q0 50 30.5 86.5t85.5 36.5q47 0 73 -26.5t26 -71.5q0 -51 -33 -87t-86 -36zM350 1145q-46 0 -71 27.5t-25 70.5q0 50 31 86.5t86 36.5q47 0 72.5 -26.5t25.5 -71.5q0 -51 -33 -87t-86 -36z" />
<glyph unicode="&#xa9;" horiz-adv-x="1902" d="M111 582q0 172 67 326.5t180.5 265.5t269.5 176t328 65t327.5 -65.5t268 -176.5t178.5 -264.5t66 -322.5q0 -171 -67.5 -325t-181.5 -265t-271.5 -176.5t-331.5 -65.5q-173 0 -328 65.5t-265.5 176.5t-175 264t-64.5 322zM211 580q0 -150 59 -287t158 -236.5t236.5 -159 t287.5 -59.5t287.5 59.5t237 159t158.5 236.5t59 287q0 149 -59 287t-158 239t-236.5 162t-288.5 61q-200 0 -371 -102t-270.5 -274.5t-99.5 -372.5zM532 573q0 253 117 382.5t309 129.5q151 0 259 -72t108 -173q0 -65 -45 -105.5t-131 -40.5q6 49 6 88q0 118 -53 178 t-144 60q-123 0 -179 -111.5t-56 -337.5q0 -222 55 -315.5t187 -93.5q109 0 182.5 56.5t97.5 164.5l82 -14q-24 -124 -117 -203.5t-260 -79.5q-191 0 -304.5 119t-113.5 368z" />
<glyph unicode="&#xaa;" horiz-adv-x="937" d="M158 938q0 111 43 211.5t127 166.5t188 66q119 0 148 -100q52 36 77 100h64q-30 -124 -60 -307t-30 -239q0 -25 5 -34t19 -9q33 0 64 50t45 95l67 -14q-36 -91 -64 -130q-64 -92 -161 -92q-110 0 -110 123q0 36 10 82h-2q-11 -23 -24 -45t-36.5 -54t-48.5 -55t-60 -40 t-71 -17q-91 0 -140.5 64t-49.5 178zM301 879q0 -54 16.5 -77.5t49.5 -23.5q57 0 117 80t95 178t35 162q0 58 -20.5 87.5t-73.5 29.5q-57 0 -102 -44.5t-69 -113.5t-36 -140.5t-12 -137.5z" />
<glyph unicode="&#xab;" horiz-adv-x="933" d="M446 438q0 63 35 133.5t94.5 135.5t117 116t122.5 99l49 -64q-47 -40 -74.5 -65.5t-51.5 -55.5t-35.5 -52t-22 -58t-15.5 -70.5t-10 -93.5q-10 -102 -10 -144q0 -73 28 -120t107 -131l-61 -64q-273 241 -273 434zM354 4q-272 240 -272 434q0 63 35 133.5t94.5 135.5 t117 116t122.5 99l49 -64q-69 -60 -102 -93.5t-57.5 -79.5t-33 -91t-16.5 -131q-10 -102 -10 -144q0 -51 17 -93.5t41 -72.5t77 -85z" />
<glyph unicode="&#xac;" d="M53 805v123h967v-572h-131v449h-836z" />
<glyph unicode="&#xad;" horiz-adv-x="788" d="M113 403l22 160h516l-22 -160h-516z" />
<glyph unicode="&#xae;" horiz-adv-x="1032" d="M582 645q-168 0 -290 122t-122 290q0 110 56 205.5t151 151.5t205 56q168 0 290.5 -122.5t122.5 -290.5q0 -167 -122.5 -289.5t-290.5 -122.5zM580 707q138 0 239 104t101 246q0 141 -101 245.5t-239 104.5q-137 0 -235.5 -104t-98.5 -246q0 -143 98 -246.5t236 -103.5z M369 834v49h65v346h-65v51h200q100 0 144.5 -27t44.5 -86q0 -51 -29.5 -80.5t-81.5 -35.5v-2q40 -9 61.5 -29t25.5 -42t5 -43t8.5 -34.5t28.5 -13.5h10l-2 -43q-14 -13 -45 -13q-43 0 -66 20.5t-30.5 49.5t-13 58.5t-21.5 50t-47 20.5h-29v-147h70v-49h-233zM532 1079h60 q33 0 51.5 22t18.5 58q0 68 -70 68h-60v-148z" />
<glyph unicode="&#xaf;" horiz-adv-x="1024" d="M276 1165l21 140h508l-21 -140h-508z" />
<glyph unicode="&#xb0;" horiz-adv-x="821" d="M489 866q-133 0 -223 91t-90 221q0 129 92.5 220t225.5 91t225 -91t92 -220t-94.5 -220.5t-227.5 -91.5zM494 993q76 0 130 54t54 131q0 76 -54 130t-130 54q-77 0 -131 -54t-54 -130t54.5 -130.5t130.5 -54.5z" />
<glyph unicode="&#xb1;" d="M74 641v123h395v379h131v-379h391v-123h-391v-405h-131v405h-395zM74 0v123h917v-123h-917z" />
<glyph unicode="&#xb2;" horiz-adv-x="831" d="M133 772l8 53q281 175 390.5 298t109.5 239q0 77 -34 110t-105 33q-72 0 -116 -27.5t-44 -88.5q0 -24 6 -48l-76 -8q-10 42 -10 70q0 101 78 160t209 59q68 0 123 -19.5t92 -67t37 -116.5q0 -124 -113.5 -259.5t-314.5 -268.5h313l23 102h73l-45 -221h-604z" />
<glyph unicode="&#xb3;" horiz-adv-x="790" d="M410 756q-106 0 -183 39.5t-77 122.5q0 55 40 80t103 20q-18 -62 -16 -105.5t34 -66.5t95 -23q95 0 144.5 48t49.5 124q0 81 -56 124.5t-165 43.5l8 62q98 0 164.5 46.5t66.5 123.5q0 110 -149 110q-150 0 -150 -106q0 -35 7 -58l-74 -8q-12 32 -12 72q0 104 82.5 160.5 t203.5 56.5q108 0 180 -46.5t72 -135.5q0 -76 -53 -133t-139 -88q76 -22 123 -72t47 -131q0 -117 -99.5 -188.5t-246.5 -71.5z" />
<glyph unicode="&#xb4;" horiz-adv-x="1024" d="M477 1077l-45 33l242 377q30 49 78 49q35 0 61.5 -26.5t26.5 -55.5q0 -38 -37 -72z" />
<glyph unicode="&#xb5;" horiz-adv-x="1320" d="M84 -496l98 701q6 71 51.5 320.5t45.5 322.5h-164l10 74h340q0 -71 -54.5 -378.5t-54.5 -381.5q0 -101 76 -101q69 0 153 104.5t156 268.5q113 257 140 488h176q-18 -106 -40.5 -239t-34 -201.5t-23.5 -145.5t-16.5 -124.5t-4.5 -84.5q0 -29 7 -41t24 -12q40 0 86.5 63.5 t85.5 177.5l73 -16q-55 -159 -124 -238t-168 -79q-70 0 -112 39t-42 122q0 34 7 74.5t20.5 97t19.5 86.5h-4q-27 -61 -52 -110.5t-67.5 -112.5t-85.5 -105.5t-103 -72t-124 -29.5q-46 0 -92 17q-2 -29 -2 -88q0 -53 6 -143t6 -117q0 -79 -31.5 -107.5t-95.5 -28.5h-86z" />
<glyph unicode="&#xb6;" horiz-adv-x="1255" d="M502 -199l78 568h-66q-82 0 -156 30t-130.5 84.5t-90 137.5t-33.5 182q0 115 45.5 218.5t121 175.5t176.5 114.5t210 42.5h652l-13 -74h-503l-203 -1479h-88zM203 -309q0 69 47.5 103.5t132.5 25.5q-18 -49 -18 -107q0 -139 131 -139q69 0 116.5 34t84.5 127t59 255 l159 1173h170l-161 -1173q-16 -116 -45.5 -201.5t-79 -151.5t-126 -99.5t-179.5 -33.5q-75 0 -138.5 17.5t-108 61.5t-44.5 108z" />
<glyph unicode="&#xb7;" horiz-adv-x="522" d="M246 330q-54 0 -93.5 39.5t-39.5 93.5t39.5 93.5t93.5 39.5q55 0 95 -39.5t40 -93.5t-40 -93.5t-95 -39.5z" />
<glyph unicode="&#xb8;" horiz-adv-x="1024" d="M399 -186l80 196h88l-51 -129q14 -2 31 -6t43 -15.5t45.5 -27.5t34 -44.5t14.5 -63.5q0 -100 -70 -160t-172 -60q-67 0 -112 29t-66 72l60 43q31 -68 114 -68q50 0 79.5 35t29.5 96q0 51 -36 75.5t-112 27.5z" />
<glyph unicode="&#xb9;" horiz-adv-x="708" d="M131 772l12 70h187l110 694h-184l12 70h340l-123 -764h185l-13 -70h-526z" />
<glyph unicode="&#xba;" horiz-adv-x="825" d="M424 696q-134 0 -197 73t-63 196q0 188 92 302.5t276 114.5q132 0 197.5 -70.5t65.5 -191.5q0 -190 -95.5 -307t-275.5 -117zM430 760q96 0 158.5 104t62.5 299q0 79 -33.5 117.5t-91.5 38.5q-100 0 -159.5 -111.5t-59.5 -287.5q0 -78 32.5 -119t90.5 -41z" />
<glyph unicode="&#xbb;" horiz-adv-x="933" d="M406 68q69 59 102.5 93t57.5 80.5t32 90t16 131.5q11 112 11 143q0 73 -28 120t-108 132l62 64q272 -240 272 -435q0 -63 -35 -133t-94 -135t-116.5 -116t-122.5 -99zM90 4l-49 64q47 40 74.5 65.5t51.5 55.5t35.5 52t22 58t15.5 70.5t10 93.5q10 102 10 143 q0 73 -28 120.5t-107 131.5l61 64q273 -241 273 -435q0 -63 -35 -133t-94.5 -135t-117 -116t-122.5 -99z" />
<glyph unicode="&#xbc;" horiz-adv-x="1734" d="M324 0l1060 1354h129l-1060 -1354h-129zM903 242l8 65l531 549h102l-90 -539h182l-12 -75h-182l-39 -242h-152l39 242h-387zM1028 317h275l57 342zM84 520l12 70h187l110 694h-184l12 70h340l-123 -764h185l-13 -70h-526z" />
<glyph unicode="&#xbd;" horiz-adv-x="1822" d="M315 0l1061 1354h129l-1061 -1354h-129zM82 520l12 70h187l110 694h-184l12 70h340l-123 -764h185l-13 -70h-526zM1040 0l9 53q192 119 304 216t153.5 170.5t41.5 150.5t-34 110t-105 33q-72 0 -116 -28t-44 -89q0 -23 6 -47l-75 -8q-11 46 -11 70q0 101 78 160t209 59 q68 0 123 -19.5t92 -67t37 -116.5q0 -124 -113.5 -259.5t-314.5 -268.5h313l23 102h74l-45 -221h-605z" />
<glyph unicode="&#xbe;" horiz-adv-x="1742" d="M911 242l9 65l530 549h102l-90 -539h183l-13 -75h-182l-39 -242h-151l38 242h-387zM367 516q-49 0 -93 8.5t-83 26.5t-62 51t-23 76q0 54 40 79.5t104 20.5q-18 -62 -16 -105t33.5 -66t94.5 -23q96 0 145.5 48t49.5 124q0 81 -56 124.5t-165 43.5l8 61q98 0 164.5 46.5 t66.5 123.5q0 111 -149 111q-150 0 -150 -107q0 -34 7 -57l-74 -8q-12 32 -12 71q0 104 82.5 160.5t203.5 56.5q108 0 180 -46.5t72 -135.5q0 -76 -53 -133t-139 -88q76 -22 123 -72t47 -131q0 -117 -99.5 -188.5t-246.5 -71.5zM330 0l1061 1354h129l-1061 -1354h-129z M1036 317h275l57 342z" />
<glyph unicode="&#xbf;" horiz-adv-x="927" d="M399 506q85 0 138 -43t53 -117q0 -45 -22.5 -84.5t-59 -69t-80 -59t-87 -63t-80 -72t-59 -94t-22.5 -121.5q0 -87 43.5 -127.5t134.5 -40.5q125 0 184.5 86t59.5 270q160 0 160 -157q0 -127 -118 -201t-294 -74q-81 0 -149 15.5t-121 47t-83 84t-30 121.5t29 126t75.5 95 t102.5 70t112.5 59t103 53.5t75.5 61t29 74.5q0 37 -25.5 59.5t-77.5 22.5q-60 0 -95.5 -30t-35.5 -83l-88 11q3 83 67 131.5t160 48.5zM637 809q0 -54 -39.5 -93.5t-93.5 -39.5q-55 0 -95 39.5t-40 93.5t40 93.5t95 39.5q54 0 93.5 -39.5t39.5 -93.5z" />
<glyph unicode="&#xc0;" horiz-adv-x="1294" d="M-102 0l10 74h170l631 1300h86l301 -1300h151l-10 -74h-522l10 74h174l-90 391h-444l-191 -391h156l-11 -74h-421zM666 1081l-263 -536h388zM856 1481l-309 180q-41 21 -41 70q0 38 26.5 67t65.5 29q43 0 68 -31l225 -270z" />
<glyph unicode="&#xc1;" horiz-adv-x="1294" d="M-102 0l10 74h170l631 1300h86l301 -1300h151l-10 -74h-522l10 74h174l-90 391h-444l-191 -391h156l-11 -74h-421zM666 1081l-263 -536h388zM651 1481l-30 45l303 270q34 31 71 31q34 0 57 -24t23 -56q0 -54 -63 -86z" />
<glyph unicode="&#xc2;" horiz-adv-x="1294" d="M-102 0l10 74h170l631 1300h86l301 -1300h151l-10 -74h-522l10 74h174l-90 391h-444l-191 -391h156l-11 -74h-421zM666 1081l-263 -536h388zM483 1450l-41 39l306 305h88l217 -305l-45 -39l-234 184h-8z" />
<glyph unicode="&#xc3;" horiz-adv-x="1294" d="M-102 0l10 74h170l631 1300h86l301 -1300h151l-10 -74h-522l10 74h174l-90 391h-444l-191 -391h156l-11 -74h-421zM666 1081l-263 -536h388zM414 1522q2 10 7 26.5t24.5 58.5t43.5 74.5t66.5 59t91.5 26.5q45 0 96 -27t99.5 -54t85.5 -27q29 0 54 11t40 27t26.5 32 t15.5 27l5 11h72q-2 -10 -6 -26.5t-23 -58.5t-43.5 -74.5t-71 -59t-102.5 -26.5q-42 0 -82.5 17t-67.5 37t-60 37t-62 17q-27 0 -51.5 -11t-39.5 -27t-26.5 -32t-15.5 -27l-5 -11h-71z" />
<glyph unicode="&#xc4;" horiz-adv-x="1294" d="M-102 0l10 74h170l631 1300h86l301 -1300h151l-10 -74h-522l10 74h174l-90 391h-444l-191 -391h156l-11 -74h-421zM666 1081l-263 -536h388zM553 1534q-46 0 -71 27.5t-25 70.5q0 50 30.5 86.5t85.5 36.5q47 0 73 -26.5t26 -71.5q0 -51 -33 -87t-86 -36zM979 1534 q-46 0 -71 27.5t-25 70.5q0 50 30.5 86.5t85.5 36.5q47 0 73 -26.5t26 -71.5q0 -51 -33 -87t-86 -36z" />
<glyph unicode="&#xc5;" horiz-adv-x="1294" d="M-102 0l10 74h170l631 1300h86l301 -1300h151l-10 -74h-522l10 74h174l-90 391h-444l-191 -391h156l-11 -74h-421zM760 1456q-89 0 -133.5 50t-44.5 118q0 84 54.5 147.5t162.5 63.5q88 0 134 -49t46 -115q0 -36 -13.5 -72.5t-39 -69t-69 -53t-97.5 -20.5zM666 1081 l-263 -536h388zM764 1536q51 0 83 42t32 87q0 37 -21.5 63.5t-62.5 26.5q-52 0 -83.5 -40.5t-31.5 -84.5q0 -39 21.5 -66.5t62.5 -27.5z" />
<glyph unicode="&#xc6;" horiz-adv-x="1849" d="M721 1280l10 74h1102l-109 -414h-61v252q0 58 -7 70t-42 12h-461l-80 -563h305l47 180h88q-45 -182 -65 -313l-21 -148h-88l27 201h-305l-76 -551h434q44 0 72 21t63.5 99.5t79.5 233.5h66q-31 -192 -39 -313l-8 -121h-1071l10 74h199l53 391h-422l-254 -391h164l-10 -74 h-428l12 74h155l783 1206h-123zM475 545h381l102 735h-8z" />
<glyph unicode="&#xc7;" horiz-adv-x="1282" d="M502 -186l65 161q-208 23 -327 171t-119 417q0 129 28 249t86 223.5t139.5 181t195.5 121.5t247 44q228 0 338 -122l72 104h78q-66 -191 -78 -285l-19 -139h-92q14 109 14 152q0 98 -92 156.5t-215 58.5q-93 0 -170 -37.5t-129 -103t-90.5 -146t-59.5 -174t-30.5 -178.5 t-9.5 -168q0 -237 78.5 -344t238.5 -107q149 0 260 89.5t166 242.5l84 -27q-28 -76 -68.5 -139t-100.5 -119.5t-147 -89.5t-192 -35l-35 -90q14 -2 31 -6t43 -15.5t45.5 -27.5t34 -44.5t14.5 -63.5q0 -100 -69.5 -160t-171.5 -60q-67 0 -112 29t-66 72l59 43 q14 -31 44 -49.5t71 -18.5q50 0 79 35t29 96q0 51 -35.5 75.5t-111.5 27.5z" />
<glyph unicode="&#xc8;" horiz-adv-x="1269" d="M184 1280l11 74h1058l-108 -414h-62v277q0 34 -9.5 45.5t-37.5 11.5h-465l-79 -563h307l47 180h88q-48 -182 -66 -313l-20 -148h-88l26 201h-307l-76 -551h437q44 0 72 21t63.5 99.5t79.5 233.5h65q-31 -192 -39 -313l-8 -121h-1069l10 74h197l168 1206h-195zM864 1481 l-309 180q-41 21 -41 70q0 38 26.5 67t65.5 29q43 0 68 -31l225 -270z" />
<glyph unicode="&#xc9;" horiz-adv-x="1269" d="M184 1280l11 74h1058l-108 -414h-62v277q0 34 -9.5 45.5t-37.5 11.5h-465l-79 -563h307l47 180h88q-48 -182 -66 -313l-20 -148h-88l26 201h-307l-76 -551h437q44 0 72 21t63.5 99.5t79.5 233.5h65q-31 -192 -39 -313l-8 -121h-1069l10 74h197l168 1206h-195zM659 1481 l-30 45l303 270q34 31 72 31q34 0 56.5 -24t22.5 -56q0 -54 -63 -86z" />
<glyph unicode="&#xca;" horiz-adv-x="1269" d="M184 1280l11 74h1058l-108 -414h-62v277q0 34 -9.5 45.5t-37.5 11.5h-465l-79 -563h307l47 180h88q-48 -182 -66 -313l-20 -148h-88l26 201h-307l-76 -551h437q44 0 72 21t63.5 99.5t79.5 233.5h65q-31 -192 -39 -313l-8 -121h-1069l10 74h197l168 1206h-195zM492 1450 l-41 39l305 305h88l217 -305l-45 -39l-234 184h-8z" />
<glyph unicode="&#xcb;" horiz-adv-x="1269" d="M184 1280l11 74h1058l-108 -414h-62v277q0 34 -9.5 45.5t-37.5 11.5h-465l-79 -563h307l47 180h88q-48 -182 -66 -313l-20 -148h-88l26 201h-307l-76 -551h437q44 0 72 21t63.5 99.5t79.5 233.5h65q-31 -192 -39 -313l-8 -121h-1069l10 74h197l168 1206h-195zM561 1534 q-46 0 -71 27.5t-25 70.5q0 50 31 86.5t86 36.5q47 0 72.5 -26.5t25.5 -71.5q0 -51 -33 -87t-86 -36zM987 1534q-46 0 -71 27.5t-25 70.5q0 50 31 86.5t86 36.5q47 0 72.5 -26.5t25.5 -71.5q0 -51 -33 -87t-86 -36z" />
<glyph unicode="&#xcc;" horiz-adv-x="751" d="M6 0l10 74h195l168 1206h-197l11 74h585l-10 -74h-197l-168 -1206h195l-10 -74h-582zM608 1481l-309 180q-41 21 -41 70q0 38 26.5 67t65.5 29q43 0 68 -31l225 -270z" />
<glyph unicode="&#xcd;" horiz-adv-x="751" d="M6 0l10 74h195l168 1206h-197l11 74h585l-10 -74h-197l-168 -1206h195l-10 -74h-582zM403 1481l-30 45l303 270q34 31 72 31q34 0 56.5 -24t22.5 -56q0 -54 -63 -86z" />
<glyph unicode="&#xce;" horiz-adv-x="751" d="M6 0l10 74h195l168 1206h-197l11 74h585l-10 -74h-197l-168 -1206h195l-10 -74h-582zM236 1450l-41 39l305 305h88l217 -305l-45 -39l-234 184h-8z" />
<glyph unicode="&#xcf;" horiz-adv-x="751" d="M6 0l10 74h195l168 1206h-197l11 74h585l-10 -74h-197l-168 -1206h195l-10 -74h-582zM305 1534q-46 0 -71 27.5t-25 70.5q0 50 31 86.5t86 36.5q47 0 72.5 -26.5t25.5 -71.5q0 -51 -33 -87t-86 -36zM731 1534q-46 0 -71 27.5t-25 70.5q0 50 31 86.5t86 36.5 q47 0 72.5 -26.5t25.5 -71.5q0 -51 -33 -87t-86 -36z" />
<glyph unicode="&#xd0;" horiz-adv-x="1480" d="M98 653l13 82h194l76 545h-195l11 74h630q151 0 261 -39.5t175 -113t95.5 -168t30.5 -214.5q0 -140 -25.5 -260t-82.5 -224.5t-143 -177.5t-214 -115t-289 -42h-629l10 74h197l80 579h-195zM819 1274h-246l-75 -539h313l-12 -82h-314l-79 -573h245q262 0 394.5 193 t132.5 599q0 114 -26 193.5t-75.5 124.5t-112 64.5t-145.5 19.5z" />
<glyph unicode="&#xd1;" horiz-adv-x="1536" d="M1094 1280l10 74h479l-10 -74h-197l-180 -1290h-88l-651 1118l-146 -1034h199l-10 -74h-484l11 74h196l164 1155q-24 30 -54.5 40.5t-103.5 10.5h-71l10 74h369l614 -1055l137 981h-194zM575 1522q2 10 7 26.5t24.5 58.5t44 74.5t67 59t91.5 26.5q45 0 96 -27t99.5 -54 t85.5 -27q29 0 54 11t40 27t26.5 32t15.5 27l5 11h72q-2 -10 -6 -26.5t-23 -58.5t-43.5 -74.5t-71 -59t-102.5 -26.5q-53 0 -102.5 27t-92 54t-78.5 27q-27 0 -51.5 -11t-39.5 -27t-26 -32t-15 -27l-5 -11h-72z" />
<glyph unicode="&#xd2;" horiz-adv-x="1429" d="M121 553q0 133 25 253t80 226t135.5 183.5t198 122t261.5 44.5q258 0 389 -142.5t131 -393.5q0 -135 -22.5 -257.5t-75 -237t-131 -197.5t-199.5 -133t-272 -50q-112 0 -200.5 29.5t-148 81t-98.5 125.5t-56 159.5t-17 186.5zM334 465q0 -225 74.5 -322.5t232.5 -97.5 q107 0 192 49t140 129.5t91 192t51 229t15 246.5q0 217 -77 317.5t-232 100.5q-127 0 -223.5 -68.5t-152.5 -188t-83.5 -267t-27.5 -320.5zM940 1481l-309 180q-41 21 -41 70q0 38 26.5 67t65.5 29q43 0 68 -31l225 -270z" />
<glyph unicode="&#xd3;" horiz-adv-x="1429" d="M121 553q0 133 25 253t80 226t135.5 183.5t198 122t261.5 44.5q258 0 389 -142.5t131 -393.5q0 -135 -22.5 -257.5t-75 -237t-131 -197.5t-199.5 -133t-272 -50q-112 0 -200.5 29.5t-148 81t-98.5 125.5t-56 159.5t-17 186.5zM334 465q0 -225 74.5 -322.5t232.5 -97.5 q107 0 192 49t140 129.5t91 192t51 229t15 246.5q0 217 -77 317.5t-232 100.5q-127 0 -223.5 -68.5t-152.5 -188t-83.5 -267t-27.5 -320.5zM735 1481l-30 45l303 270q34 31 71 31q34 0 57 -24t23 -56q0 -54 -63 -86z" />
<glyph unicode="&#xd4;" horiz-adv-x="1429" d="M121 553q0 133 25 253t80 226t135.5 183.5t198 122t261.5 44.5q258 0 389 -142.5t131 -393.5q0 -135 -22.5 -257.5t-75 -237t-131 -197.5t-199.5 -133t-272 -50q-112 0 -200.5 29.5t-148 81t-98.5 125.5t-56 159.5t-17 186.5zM334 465q0 -225 74.5 -322.5t232.5 -97.5 q107 0 192 49t140 129.5t91 192t51 229t15 246.5q0 217 -77 317.5t-232 100.5q-127 0 -223.5 -68.5t-152.5 -188t-83.5 -267t-27.5 -320.5zM567 1450l-41 39l305 305h89l217 -305l-45 -39l-234 184h-8z" />
<glyph unicode="&#xd5;" horiz-adv-x="1429" d="M121 553q0 133 25 253t80 226t135.5 183.5t198 122t261.5 44.5q258 0 389 -142.5t131 -393.5q0 -135 -22.5 -257.5t-75 -237t-131 -197.5t-199.5 -133t-272 -50q-112 0 -200.5 29.5t-148 81t-98.5 125.5t-56 159.5t-17 186.5zM334 465q0 -225 74.5 -322.5t232.5 -97.5 q107 0 192 49t140 129.5t91 192t51 229t15 246.5q0 217 -77 317.5t-232 100.5q-127 0 -223.5 -68.5t-152.5 -188t-83.5 -267t-27.5 -320.5zM498 1522q2 10 7 26.5t24.5 58.5t43.5 74.5t66.5 59t91.5 26.5q45 0 96 -27t99.5 -54t85.5 -27q29 0 54 11t40 27t26.5 32t15.5 27 l5 11h72q-2 -10 -6 -26.5t-23 -58.5t-43.5 -74.5t-71 -59t-102.5 -26.5q-42 0 -82.5 17t-67.5 37t-60 37t-62 17q-27 0 -51.5 -11t-39.5 -27t-26.5 -32t-15.5 -27l-5 -11h-71z" />
<glyph unicode="&#xd6;" horiz-adv-x="1429" d="M121 553q0 133 25 253t80 226t135.5 183.5t198 122t261.5 44.5q258 0 389 -142.5t131 -393.5q0 -135 -22.5 -257.5t-75 -237t-131 -197.5t-199.5 -133t-272 -50q-112 0 -200.5 29.5t-148 81t-98.5 125.5t-56 159.5t-17 186.5zM334 465q0 -225 74.5 -322.5t232.5 -97.5 q107 0 192 49t140 129.5t91 192t51 229t15 246.5q0 217 -77 317.5t-232 100.5q-127 0 -223.5 -68.5t-152.5 -188t-83.5 -267t-27.5 -320.5zM1063 1534q-46 0 -71 27.5t-25 70.5q0 50 30.5 86.5t85.5 36.5q47 0 73 -26.5t26 -71.5q0 -51 -33 -87t-86 -36zM637 1534 q-46 0 -71 27.5t-25 70.5q0 50 30.5 86.5t85.5 36.5q47 0 73 -26.5t26 -71.5q0 -51 -33 -87t-86 -36z" />
<glyph unicode="&#xd7;" d="M18 918l95 88l426 -428l428 428l92 -91l-430 -428l430 -430l-94 -88l-426 426l-428 -426l-93 90l428 428z" />
<glyph unicode="&#xd8;" horiz-adv-x="1449" d="M121 553q0 133 25.5 253t81 226t137 183.5t201 122t265.5 44.5q195 0 322 -82l135 179l72 -56l-137 -180q139 -139 139 -397q0 -135 -22.5 -257.5t-76 -237t-133.5 -197.5t-203 -133t-276 -50q-207 0 -332 92l-139 -182l-71 56l143 186q-131 148 -131 430zM1151 891 q0 131 -31 219l-725 -946q75 -119 256 -119q109 0 196 49t143 129.5t93 192t52.5 229t15.5 246.5zM334 465q0 -129 22 -205l719 940q-78 109 -244 109q-130 0 -228.5 -68.5t-155.5 -188t-85 -267t-28 -320.5z" />
<glyph unicode="&#xd9;" horiz-adv-x="1521" d="M147 1280l11 74h585l-10 -74h-196l-88 -623q-31 -216 -31 -278q0 -54 6.5 -97.5t26 -88.5t52 -75.5t88 -49.5t130.5 -19q200 0 312 123.5t141 337.5l106 770h-197l11 74h489l-10 -74h-197l-106 -774q-74 -535 -563 -535q-124 0 -218 33.5t-150.5 95t-84 141t-27.5 177.5 q0 27 2.5 54.5t5.5 48.5t9.5 61.5t11.5 72.5l86 625h-195zM1020 1481l-309 180q-41 21 -41 70q0 38 26.5 67t65.5 29q42 0 67 -31l226 -270z" />
<glyph unicode="&#xda;" horiz-adv-x="1521" d="M147 1280l11 74h585l-10 -74h-196l-88 -623q-31 -216 -31 -278q0 -54 6.5 -97.5t26 -88.5t52 -75.5t88 -49.5t130.5 -19q200 0 312 123.5t141 337.5l106 770h-197l11 74h489l-10 -74h-197l-106 -774q-74 -535 -563 -535q-124 0 -218 33.5t-150.5 95t-84 141t-27.5 177.5 q0 27 2.5 54.5t5.5 48.5t9.5 61.5t11.5 72.5l86 625h-195zM815 1481l-31 45l303 270q34 31 72 31q34 0 57 -24t23 -56q0 -54 -63 -86z" />
<glyph unicode="&#xdb;" horiz-adv-x="1521" d="M147 1280l11 74h585l-10 -74h-196l-88 -623q-31 -216 -31 -278q0 -54 6.5 -97.5t26 -88.5t52 -75.5t88 -49.5t130.5 -19q200 0 312 123.5t141 337.5l106 770h-197l11 74h489l-10 -74h-197l-106 -774q-74 -535 -563 -535q-124 0 -218 33.5t-150.5 95t-84 141t-27.5 177.5 q0 27 2.5 54.5t5.5 48.5t9.5 61.5t11.5 72.5l86 625h-195zM647 1450l-41 39l305 305h88l218 -305l-46 -39l-233 184h-8z" />
<glyph unicode="&#xdc;" horiz-adv-x="1521" d="M147 1280l11 74h585l-10 -74h-196l-88 -623q-31 -216 -31 -278q0 -54 6.5 -97.5t26 -88.5t52 -75.5t88 -49.5t130.5 -19q200 0 312 123.5t141 337.5l106 770h-197l11 74h489l-10 -74h-197l-106 -774q-74 -535 -563 -535q-124 0 -218 33.5t-150.5 95t-84 141t-27.5 177.5 q0 27 2.5 54.5t5.5 48.5t9.5 61.5t11.5 72.5l86 625h-195zM1143 1534q-46 0 -71 27.5t-25 70.5q0 50 30.5 86.5t85.5 36.5q47 0 73 -26.5t26 -71.5q0 -51 -33 -87t-86 -36zM717 1534q-46 0 -71 27.5t-25 70.5q0 50 30.5 86.5t85.5 36.5q47 0 73 -26.5t26 -71.5 q0 -51 -33 -87t-86 -36z" />
<glyph unicode="&#xdd;" horiz-adv-x="1273" d="M950 1280l11 74h421l-10 -74h-141q-76 -73 -149 -160.5t-151 -201.5t-135.5 -249t-78.5 -266l-47 -329h198l-10 -74h-588l11 74h196l39 266q35 234 -36 461t-232 479h-176l10 74h561l-10 -74h-166q77 -113 137 -258q72 -179 101 -340q63 157 159 297q116 173 248 301 h-162zM670 1481l-31 45l303 270q34 31 72 31q34 0 57 -24t23 -56q0 -53 -64 -86z" />
<glyph unicode="&#xde;" horiz-adv-x="1200" d="M563 299l10 74q29 -4 60 -4q78 0 137.5 31t95 85.5t53 124t17.5 152.5q0 217 -272 217h-138l-125 -905h215l-10 -74h-596l10 74h187l168 1206h-187l11 74h596l-11 -74h-215l-30 -221h139q127 0 220.5 -28t145 -76t75.5 -104.5t24 -121.5t-16.5 -125t-55 -117.5t-96 -100 t-145 -68t-195.5 -25.5q-19 0 -37 1.5t-26 3.5z" />
<glyph unicode="&#xdf;" horiz-adv-x="1050" d="M76 -4q19 120 41.5 301.5t38 325t28.5 267.5l13 124q12 88 32 158.5t55.5 132.5t84.5 103.5t119.5 65t160.5 23.5q152 0 236 -63t84 -177q0 -66 -30 -119t-72.5 -89t-84.5 -71t-72 -83t-30 -107q0 -58 28 -108t68 -89.5t80 -80.5t68 -99t28 -128q0 -137 -94.5 -224.5 t-226.5 -87.5q-88 0 -150.5 43t-85.5 125l78 33q33 -123 156 -123q71 0 113 36.5t42 115.5q0 61 -29 113t-70 91.5t-82 80.5t-70 100t-29 131q0 61 20.5 112.5t53.5 87t72.5 67t79.5 60.5t73 58.5t53.5 68.5t20.5 84q0 78 -58.5 124t-159.5 46q-133 0 -197.5 -96.5 t-90.5 -339.5q-4 -44 -20 -201.5t-46.5 -407.5t-54.5 -380q-16 -91 -36.5 -161.5t-53.5 -135.5t-75 -107t-102.5 -67t-136.5 -25q-64 0 -118.5 16t-91.5 51.5t-37 86.5q0 68 61 103.5t127 27.5q-15 -31 -23 -66.5t-7 -71t24.5 -58.5t68.5 -23q89 0 139 96t87 330z" />
<glyph unicode="&#xe0;" d="M309 -29q-117 0 -183.5 92.5t-66.5 255.5q0 117 35.5 230t98.5 202t156.5 144t201.5 55q160 0 209 -141q70 61 104 141h72q-43 -200 -86 -469t-43 -354q0 -29 7 -41t24 -12q33 0 70 44t61 94.5t41 102.5l73 -16q-14 -37 -23 -60t-26 -60.5t-32.5 -61t-39 -52t-48 -44.5 t-57 -27.5t-69.5 -11.5q-149 0 -149 165q0 52 6 89h-8q-136 -265 -328 -265zM244 233q0 -95 20.5 -138.5t69.5 -43.5q109 0 217 182q64 108 105.5 239.5t41.5 223.5q0 73 -33.5 123.5t-109.5 50.5q-62 0 -114.5 -40t-88 -105.5t-60.5 -150t-36.5 -171t-11.5 -170.5z M612 1077l-221 320q-20 30 -20 59q0 31 26 55.5t64 24.5q62 0 80 -59l121 -377z" />
<glyph unicode="&#xe1;" d="M309 -29q-117 0 -183.5 92.5t-66.5 255.5q0 117 35.5 230t98.5 202t156.5 144t201.5 55q160 0 209 -141q70 61 104 141h72q-43 -200 -86 -469t-43 -354q0 -29 7 -41t24 -12q33 0 70 44t61 94.5t41 102.5l73 -16q-14 -37 -23 -60t-26 -60.5t-32.5 -61t-39 -52t-48 -44.5 t-57 -27.5t-69.5 -11.5q-149 0 -149 165q0 52 6 89h-8q-136 -265 -328 -265zM244 233q0 -95 20.5 -138.5t69.5 -43.5q109 0 217 182q64 108 105.5 239.5t41.5 223.5q0 73 -33.5 123.5t-109.5 50.5q-62 0 -114.5 -40t-88 -105.5t-60.5 -150t-36.5 -171t-11.5 -170.5z M526 1077l-45 33l242 377q30 49 78 49q35 0 61.5 -26.5t26.5 -55.5q0 -38 -37 -72z" />
<glyph unicode="&#xe2;" d="M309 -29q-117 0 -183.5 92.5t-66.5 255.5q0 117 35.5 230t98.5 202t156.5 144t201.5 55q160 0 209 -141q70 61 104 141h72q-43 -200 -86 -469t-43 -354q0 -29 7 -41t24 -12q33 0 70 44t61 94.5t41 102.5l73 -16q-14 -37 -23 -60t-26 -60.5t-32.5 -61t-39 -52t-48 -44.5 t-57 -27.5t-69.5 -11.5q-149 0 -149 165q0 52 6 89h-8q-136 -265 -328 -265zM244 233q0 -95 20.5 -138.5t69.5 -43.5q109 0 217 182q64 108 105.5 239.5t41.5 223.5q0 73 -33.5 123.5t-109.5 50.5q-62 0 -114.5 -40t-88 -105.5t-60.5 -150t-36.5 -171t-11.5 -170.5z M352 1077l-51 29l291 430h80l166 -430l-54 -27l-178 271z" />
<glyph unicode="&#xe3;" d="M309 -29q-117 0 -183.5 92.5t-66.5 255.5q0 117 35.5 230t98.5 202t156.5 144t201.5 55q160 0 209 -141q70 61 104 141h72q-43 -200 -86 -469t-43 -354q0 -29 7 -41t24 -12q33 0 70 44t61 94.5t41 102.5l73 -16q-14 -37 -23 -60t-26 -60.5t-32.5 -61t-39 -52t-48 -44.5 t-57 -27.5t-69.5 -11.5q-149 0 -149 165q0 52 6 89h-8q-136 -265 -328 -265zM244 233q0 -95 20.5 -138.5t69.5 -43.5q109 0 217 182q64 108 105.5 239.5t41.5 223.5q0 73 -33.5 123.5t-109.5 50.5q-62 0 -114.5 -40t-88 -105.5t-60.5 -150t-36.5 -171t-11.5 -170.5z M254 1112q2 10 7 26.5t24.5 59t43.5 75t66.5 59t91.5 26.5q27 0 58 -17t53.5 -37.5t51 -37.5t52.5 -17q48 0 84.5 27.5t49.5 54.5l12 27h72q-2 -10 -6 -26.5t-23 -59t-43.5 -75t-71 -59t-102.5 -26.5q-34 0 -65 16.5t-50 36t-44 36t-48 16.5q-29 0 -54.5 -11t-40.5 -26.5 t-26 -30.5t-16 -26l-4 -11h-72z" />
<glyph unicode="&#xe4;" d="M309 -29q-117 0 -183.5 92.5t-66.5 255.5q0 117 35.5 230t98.5 202t156.5 144t201.5 55q160 0 209 -141q70 61 104 141h72q-43 -200 -86 -469t-43 -354q0 -29 7 -41t24 -12q33 0 70 44t61 94.5t41 102.5l73 -16q-14 -37 -23 -60t-26 -60.5t-32.5 -61t-39 -52t-48 -44.5 t-57 -27.5t-69.5 -11.5q-149 0 -149 165q0 52 6 89h-8q-136 -265 -328 -265zM244 233q0 -95 20.5 -138.5t69.5 -43.5q109 0 217 182q64 108 105.5 239.5t41.5 223.5q0 73 -33.5 123.5t-109.5 50.5q-62 0 -114.5 -40t-88 -105.5t-60.5 -150t-36.5 -171t-11.5 -170.5z M768 1145q-46 0 -71 27.5t-25 70.5q0 50 30.5 86.5t85.5 36.5q47 0 73 -26.5t26 -71.5q0 -51 -33 -87t-86 -36zM399 1145q-46 0 -71 27.5t-25 70.5q0 50 31 86.5t86 36.5q47 0 72.5 -26.5t25.5 -71.5q0 -51 -33 -87t-86 -36z" />
<glyph unicode="&#xe5;" d="M309 -29q-117 0 -183.5 92.5t-66.5 255.5q0 117 35.5 230t98.5 202t156.5 144t201.5 55q160 0 209 -141q70 61 104 141h72q-43 -200 -86 -469t-43 -354q0 -29 7 -41t24 -12q33 0 70 44t61 94.5t41 102.5l73 -16q-14 -37 -23 -60t-26 -60.5t-32.5 -61t-39 -52t-48 -44.5 t-57 -27.5t-69.5 -11.5q-149 0 -149 165q0 52 6 89h-8q-136 -265 -328 -265zM244 233q0 -95 20.5 -138.5t69.5 -43.5q109 0 217 182q64 108 105.5 239.5t41.5 223.5q0 73 -33.5 123.5t-109.5 50.5q-62 0 -114.5 -40t-88 -105.5t-60.5 -150t-36.5 -171t-11.5 -170.5z M573 1077q-89 0 -133.5 50t-44.5 118q0 84 54.5 147.5t162.5 63.5q88 0 134.5 -49t46.5 -115q0 -49 -22 -96.5t-74.5 -83t-123.5 -35.5zM578 1157q51 0 82.5 42t31.5 87q0 37 -21.5 63.5t-62.5 26.5q-52 0 -83 -40.5t-31 -84.5q0 -39 21.5 -66.5t62.5 -27.5z" />
<glyph unicode="&#xe6;" horiz-adv-x="1421" d="M23 190q0 77 51.5 139t139.5 101t192.5 61.5t222.5 28.5q28 230 28 252q0 65 -33.5 89t-111.5 24q-51 0 -87.5 -10t-67 -34.5t-45.5 -72.5t-15 -119l2 -22q-79 0 -117.5 34.5t-38.5 92.5q0 90 100.5 143t268.5 53q110 0 175.5 -27.5t94.5 -88.5q116 116 303 116 q117 0 191 -48.5t74 -145.5q0 -78 -42 -136t-119 -93.5t-174.5 -54t-219.5 -23.5q-11 -90 -11 -158q0 -125 43 -186.5t134 -61.5q95 0 164.5 63t113.5 166l74 -22q-60 -134 -150 -206.5t-229 -72.5q-234 0 -301 205q-72 -108 -156 -156.5t-192 -48.5q-109 0 -185.5 57.5 t-76.5 161.5zM596 285q7 60 22 159q-403 -25 -403 -270q0 -125 102 -125q88 0 172 74.5t107 161.5zM1075 885q-90 0 -163 -98.5t-105 -260.5q198 9 286.5 67t88.5 175q0 53 -26 85t-81 32z" />
<glyph unicode="&#xe7;" horiz-adv-x="886" d="M289 -186l63 159q-140 15 -212 117.5t-72 280.5q0 115 30 218t88 184t151 129t210 48q127 0 203.5 -52.5t76.5 -139.5q0 -66 -47.5 -109t-140.5 -43q25 98 25 154q0 125 -117 125q-88 0 -157 -82.5t-104.5 -216t-35.5 -291.5q0 -130 40.5 -189t129.5 -59q181 0 280 227 l78 -24q-57 -123 -137 -194.5t-199 -82.5l-36 -92q14 -2 31 -6t42.5 -15.5t45 -27.5t34 -44.5t14.5 -63.5q0 -100 -69.5 -160t-171.5 -60q-67 0 -112 29t-66 72l59 43q14 -31 44 -49.5t71 -18.5q50 0 79 35t29 96q0 51 -35.5 75.5t-111.5 27.5z" />
<glyph unicode="&#xe8;" horiz-adv-x="882" d="M68 365q0 88 17 170.5t55.5 158.5t94 132.5t139 90t185.5 33.5q38 0 71.5 -5t67.5 -18t58.5 -33.5t39.5 -54.5t15 -77q0 -52 -21.5 -95t-48 -69.5t-81.5 -54t-89 -40t-104 -35.5q-14 -5 -21 -7q-152 -53 -198 -99q-2 -27 -2 -71q0 -126 42.5 -185t135.5 -59 q90 0 159.5 63t112.5 164l78 -24q-60 -134 -150 -206.5t-229 -72.5q-164 0 -245.5 102.5t-81.5 291.5zM541 885q-60 0 -110 -38.5t-83 -103.5t-54.5 -136t-33.5 -150q45 37 168 78q52 17 86.5 34.5t66 45t47 68.5t15.5 97q0 105 -102 105zM592 1077l-221 320q-21 31 -21 59 q0 31 26 55.5t64 24.5q62 0 80 -59l121 -377z" />
<glyph unicode="&#xe9;" horiz-adv-x="882" d="M68 365q0 88 17 170.5t55.5 158.5t94 132.5t139 90t185.5 33.5q38 0 71.5 -5t67.5 -18t58.5 -33.5t39.5 -54.5t15 -77q0 -52 -21.5 -95t-48 -69.5t-81.5 -54t-89 -40t-104 -35.5q-14 -5 -21 -7q-152 -53 -198 -99q-2 -27 -2 -71q0 -126 42.5 -185t135.5 -59 q90 0 159.5 63t112.5 164l78 -24q-60 -134 -150 -206.5t-229 -72.5q-164 0 -245.5 102.5t-81.5 291.5zM541 885q-60 0 -110 -38.5t-83 -103.5t-54.5 -136t-33.5 -150q45 37 168 78q52 17 86.5 34.5t66 45t47 68.5t15.5 97q0 105 -102 105zM506 1077l-45 33l241 377 q30 49 78 49q35 0 61.5 -26.5t26.5 -55.5q0 -38 -37 -72z" />
<glyph unicode="&#xea;" horiz-adv-x="882" d="M68 365q0 88 17 170.5t55.5 158.5t94 132.5t139 90t185.5 33.5q38 0 71.5 -5t67.5 -18t58.5 -33.5t39.5 -54.5t15 -77q0 -52 -21.5 -95t-48 -69.5t-81.5 -54t-89 -40t-104 -35.5q-14 -5 -21 -7q-152 -53 -198 -99q-2 -27 -2 -71q0 -126 42.5 -185t135.5 -59 q90 0 159.5 63t112.5 164l78 -24q-60 -134 -150 -206.5t-229 -72.5q-164 0 -245.5 102.5t-81.5 291.5zM541 885q-60 0 -110 -38.5t-83 -103.5t-54.5 -136t-33.5 -150q45 37 168 78q52 17 86.5 34.5t66 45t47 68.5t15.5 97q0 105 -102 105zM332 1077l-51 29l290 430h80 l166 -430l-53 -27l-178 271z" />
<glyph unicode="&#xeb;" horiz-adv-x="882" d="M68 365q0 88 17 170.5t55.5 158.5t94 132.5t139 90t185.5 33.5q38 0 71.5 -5t67.5 -18t58.5 -33.5t39.5 -54.5t15 -77q0 -52 -21.5 -95t-48 -69.5t-81.5 -54t-89 -40t-104 -35.5q-14 -5 -21 -7q-152 -53 -198 -99q-2 -27 -2 -71q0 -126 42.5 -185t135.5 -59 q90 0 159.5 63t112.5 164l78 -24q-60 -134 -150 -206.5t-229 -72.5q-164 0 -245.5 102.5t-81.5 291.5zM541 885q-60 0 -110 -38.5t-83 -103.5t-54.5 -136t-33.5 -150q45 37 168 78q52 17 86.5 34.5t66 45t47 68.5t15.5 97q0 105 -102 105zM748 1145q-46 0 -71.5 27.5 t-25.5 70.5q0 50 31 86.5t86 36.5q47 0 72.5 -26.5t25.5 -71.5q0 -51 -32.5 -87t-85.5 -36zM379 1145q-46 0 -71 27.5t-25 70.5q0 50 30.5 86.5t85.5 36.5q47 0 73 -26.5t26 -71.5q0 -51 -33 -87t-86 -36z" />
<glyph unicode="&#xec;" horiz-adv-x="610" d="M137 133q0 58 48 350.5t48 364.5h-180l10 74h357q0 -85 -56.5 -428.5t-56.5 -378.5q0 -41 33 -41q32 0 67.5 43t61 95t41.5 103l74 -16q-56 -157 -122.5 -237t-168.5 -80q-69 0 -112.5 38.5t-43.5 112.5zM369 1077l-222 320q-20 30 -20 59q0 31 26 55.5t64 24.5 q62 0 80 -59l121 -377z" />
<glyph unicode="&#xed;" horiz-adv-x="610" d="M137 133q0 58 48 350.5t48 364.5h-180l10 74h357q0 -85 -56.5 -428.5t-56.5 -378.5q0 -41 33 -41q32 0 67.5 43t61 95t41.5 103l74 -16q-56 -157 -122.5 -237t-168.5 -80q-69 0 -112.5 38.5t-43.5 112.5zM283 1077l-45 33l241 377q30 49 78 49q35 0 61.5 -26.5 t26.5 -55.5q0 -38 -37 -72z" />
<glyph unicode="&#xee;" horiz-adv-x="610" d="M137 133q0 58 48 350.5t48 364.5h-180l10 74h357q0 -85 -56.5 -428.5t-56.5 -378.5q0 -41 33 -41q32 0 67.5 43t61 95t41.5 103l74 -16q-56 -157 -122.5 -237t-168.5 -80q-69 0 -112.5 38.5t-43.5 112.5zM109 1077l-52 29l291 430h80l166 -430l-53 -27l-179 271z" />
<glyph unicode="&#xef;" horiz-adv-x="610" d="M137 133q0 58 48 350.5t48 364.5h-180l10 74h357q0 -85 -56.5 -428.5t-56.5 -378.5q0 -41 33 -41q32 0 67.5 43t61 95t41.5 103l74 -16q-56 -157 -122.5 -237t-168.5 -80q-69 0 -112.5 38.5t-43.5 112.5zM524 1145q-46 0 -71 27.5t-25 70.5q0 50 31 86.5t86 36.5 q47 0 72.5 -26.5t25.5 -71.5q0 -51 -33 -87t-86 -36zM156 1145q-46 0 -71.5 27.5t-25.5 70.5q0 50 31 86.5t86 36.5q47 0 72.5 -26.5t25.5 -71.5q0 -51 -32.5 -87t-85.5 -36z" />
<glyph unicode="&#xf0;" horiz-adv-x="1026" d="M256 1063l313 180q-104 108 -264 174l35 66q189 -70 322 -185l264 152l41 -74l-242 -139q201 -222 201 -596q0 -310 -131.5 -490t-368.5 -180q-176 0 -267 104t-91 300q0 128 40.5 233.5t107.5 173t151.5 104t175.5 36.5q118 0 200 -64q-26 190 -120 320l-326 -189z M250 305q0 -266 176 -266q94 0 167.5 82.5t109.5 208t36 268.5q0 121 -49 185.5t-135 64.5q-94 0 -165.5 -80t-105.5 -201.5t-34 -261.5z" />
<glyph unicode="&#xf1;" horiz-adv-x="1175" d="M104 0q100 621 112 737q7 67 7 111h-166l11 74h340q0 -23 -1.5 -46.5t-5.5 -54t-7 -51.5t-10 -61t-11 -58.5t-13.5 -68.5t-13.5 -68h4q18 42 32.5 73t40.5 80t51 84t61.5 75t74 65t85.5 42t100 17q186 0 186 -215q0 -101 -52 -324t-52 -284q0 -53 30 -53q40 0 86.5 64 t85.5 177l74 -16q-55 -159 -124.5 -238t-168.5 -79q-69 0 -111 39t-42 122q0 64 49 287t49 318q0 57 -15.5 82.5t-54.5 25.5q-76 0 -161 -106.5t-158 -274.5q-108 -248 -135 -475h-177zM342 1112q2 10 7 26.5t24.5 59t43.5 75t66.5 59t91.5 26.5q34 0 73 -27t76 -54.5 t67 -27.5q31 0 57 11t41.5 27.5t26.5 32.5t16 27l4 11h72q-2 -10 -6 -26.5t-23 -59t-43.5 -75t-71 -59t-102.5 -26.5q-34 0 -65 16.5t-50 36t-44 36t-48 16.5q-29 0 -54.5 -11t-40.5 -26.5t-26 -30.5t-16 -26l-4 -11h-72z" />
<glyph unicode="&#xf2;" horiz-adv-x="1019" d="M68 354q0 129 30 236t90 188.5t157.5 126.5t225.5 45q177 0 265 -102t88 -273q0 -176 -55 -310.5t-171 -214t-280 -79.5q-122 0 -202 51.5t-114 135t-34 196.5zM250 289q0 -116 43 -184t133 -68q82 0 145 57.5t98 149.5t52.5 192t17.5 201q0 114 -42.5 181t-133.5 67 q-72 0 -129 -43.5t-90.5 -109t-55.5 -149.5t-30 -156t-8 -138zM623 1077l-222 320q-20 30 -20 59q0 31 26 55.5t64 24.5q62 0 80 -59l121 -377z" />
<glyph unicode="&#xf3;" horiz-adv-x="1019" d="M68 354q0 129 30 236t90 188.5t157.5 126.5t225.5 45q177 0 265 -102t88 -273q0 -176 -55 -310.5t-171 -214t-280 -79.5q-122 0 -202 51.5t-114 135t-34 196.5zM250 289q0 -116 43 -184t133 -68q82 0 145 57.5t98 149.5t52.5 192t17.5 201q0 114 -42.5 181t-133.5 67 q-72 0 -129 -43.5t-90.5 -109t-55.5 -149.5t-30 -156t-8 -138zM537 1077l-45 33l241 377q30 49 78 49q35 0 61.5 -26.5t26.5 -55.5q0 -38 -37 -72z" />
<glyph unicode="&#xf4;" horiz-adv-x="1019" d="M68 354q0 129 30 236t90 188.5t157.5 126.5t225.5 45q177 0 265 -102t88 -273q0 -176 -55 -310.5t-171 -214t-280 -79.5q-122 0 -202 51.5t-114 135t-34 196.5zM250 289q0 -116 43 -184t133 -68q82 0 145 57.5t98 149.5t52.5 192t17.5 201q0 114 -42.5 181t-133.5 67 q-72 0 -129 -43.5t-90.5 -109t-55.5 -149.5t-30 -156t-8 -138zM362 1077l-51 29l291 430h80l166 -430l-53 -27l-179 271z" />
<glyph unicode="&#xf5;" horiz-adv-x="1019" d="M68 354q0 129 30 236t90 188.5t157.5 126.5t225.5 45q177 0 265 -102t88 -273q0 -176 -55 -310.5t-171 -214t-280 -79.5q-122 0 -202 51.5t-114 135t-34 196.5zM250 289q0 -116 43 -184t133 -68q82 0 145 57.5t98 149.5t52.5 192t17.5 201q0 114 -42.5 181t-133.5 67 q-72 0 -129 -43.5t-90.5 -109t-55.5 -149.5t-30 -156t-8 -138zM264 1112q2 10 7 26.5t24.5 59t44 75t67 59t91.5 26.5q27 0 58 -17t53.5 -37.5t51 -37.5t52.5 -17q31 0 57 11t41.5 27.5t26.5 32.5t16 27l4 11h72q-2 -10 -6 -26.5t-23 -59t-43.5 -75t-71 -59t-102.5 -26.5 q-34 0 -65 16.5t-50 36t-44 36t-48 16.5q-29 0 -54.5 -11t-40.5 -26.5t-26 -30.5t-16 -26l-4 -11h-72z" />
<glyph unicode="&#xf6;" horiz-adv-x="1019" d="M68 354q0 129 30 236t90 188.5t157.5 126.5t225.5 45q177 0 265 -102t88 -273q0 -176 -55 -310.5t-171 -214t-280 -79.5q-122 0 -202 51.5t-114 135t-34 196.5zM250 289q0 -116 43 -184t133 -68q82 0 145 57.5t98 149.5t52.5 192t17.5 201q0 114 -42.5 181t-133.5 67 q-72 0 -129 -43.5t-90.5 -109t-55.5 -149.5t-30 -156t-8 -138zM778 1145q-46 0 -71 27.5t-25 70.5q0 50 31 86.5t86 36.5q47 0 72.5 -26.5t25.5 -71.5q0 -51 -33 -87t-86 -36zM410 1145q-46 0 -71.5 27.5t-25.5 70.5q0 50 31 86.5t86 36.5q47 0 72.5 -26.5t25.5 -71.5 q0 -51 -32.5 -87t-85.5 -36z" />
<glyph unicode="&#xf7;" d="M543 760q-51 0 -87 36t-36 87t36 87t87 36t87 -36t36 -87t-36 -87t-87 -36zM84 434v123h917v-123h-917zM420 102q0 51 36 87t87 36t87 -36t36 -87t-36 -86.5t-87 -35.5t-87 35.5t-36 86.5z" />
<glyph unicode="&#xf8;" horiz-adv-x="1017" d="M68 354q0 129 30 236t90 188.5t157.5 126.5t225.5 45q118 0 199 -49l125 156l61 -49l-125 -156q93 -100 93 -277q0 -176 -55 -310.5t-171 -214t-280 -79.5q-140 0 -230 70l-122 -156l-64 49l131 166q-65 95 -65 254zM739 637q0 52 -8 88l-459 -580q40 -108 154 -108 q82 0 145 57.5t98 149.5t52.5 192t17.5 201zM250 289v-41l450 565q-46 72 -137 72q-72 0 -129 -43.5t-90.5 -109t-55.5 -149.5t-30 -156t-8 -138z" />
<glyph unicode="&#xf9;" horiz-adv-x="1181" d="M125 162q0 69 49 340.5t49 345.5h-164l11 74h340q0 -71 -54.5 -378.5t-54.5 -381.5q0 -101 76 -101q69 0 153 104.5t156 268.5q112 254 139 488h176q-17 -103 -40 -239t-34 -202.5t-23 -144t-16.5 -125t-4.5 -84.5q0 -30 6.5 -41.5t23.5 -11.5q40 0 86.5 63.5t85.5 177.5 l74 -16q-55 -159 -124.5 -238t-168.5 -79q-69 0 -111 39t-42 122q0 34 7 74.5t20.5 97t19.5 86.5h-4q-27 -61 -52 -110.5t-67.5 -112.5t-85.5 -105.5t-103 -72t-124 -29.5q-95 0 -147 51t-52 140zM678 1077l-221 320q-21 31 -21 59q0 31 26 55.5t64 24.5q62 0 80 -59 l121 -377z" />
<glyph unicode="&#xfa;" horiz-adv-x="1181" d="M125 162q0 69 49 340.5t49 345.5h-164l11 74h340q0 -71 -54.5 -378.5t-54.5 -381.5q0 -101 76 -101q69 0 153 104.5t156 268.5q112 254 139 488h176q-17 -103 -40 -239t-34 -202.5t-23 -144t-16.5 -125t-4.5 -84.5q0 -30 6.5 -41.5t23.5 -11.5q40 0 86.5 63.5t85.5 177.5 l74 -16q-55 -159 -124.5 -238t-168.5 -79q-69 0 -111 39t-42 122q0 34 7 74.5t20.5 97t19.5 86.5h-4q-27 -61 -52 -110.5t-67.5 -112.5t-85.5 -105.5t-103 -72t-124 -29.5q-95 0 -147 51t-52 140zM592 1077l-45 33l241 377q30 49 78 49q35 0 61.5 -26.5t26.5 -55.5 q0 -39 -36 -72z" />
<glyph unicode="&#xfb;" horiz-adv-x="1181" d="M125 162q0 69 49 340.5t49 345.5h-164l11 74h340q0 -71 -54.5 -378.5t-54.5 -381.5q0 -101 76 -101q69 0 153 104.5t156 268.5q112 254 139 488h176q-17 -103 -40 -239t-34 -202.5t-23 -144t-16.5 -125t-4.5 -84.5q0 -30 6.5 -41.5t23.5 -11.5q40 0 86.5 63.5t85.5 177.5 l74 -16q-55 -159 -124.5 -238t-168.5 -79q-69 0 -111 39t-42 122q0 34 7 74.5t20.5 97t19.5 86.5h-4q-27 -61 -52 -110.5t-67.5 -112.5t-85.5 -105.5t-103 -72t-124 -29.5q-95 0 -147 51t-52 140zM418 1077l-51 29l290 430h80l166 -430l-53 -27l-178 271z" />
<glyph unicode="&#xfc;" horiz-adv-x="1181" d="M125 162q0 69 49 340.5t49 345.5h-164l11 74h340q0 -71 -54.5 -378.5t-54.5 -381.5q0 -101 76 -101q69 0 153 104.5t156 268.5q112 254 139 488h176q-17 -103 -40 -239t-34 -202.5t-23 -144t-16.5 -125t-4.5 -84.5q0 -30 6.5 -41.5t23.5 -11.5q40 0 86.5 63.5t85.5 177.5 l74 -16q-55 -159 -124.5 -238t-168.5 -79q-69 0 -111 39t-42 122q0 34 7 74.5t20.5 97t19.5 86.5h-4q-27 -61 -52 -110.5t-67.5 -112.5t-85.5 -105.5t-103 -72t-124 -29.5q-95 0 -147 51t-52 140zM834 1145q-46 0 -71.5 27.5t-25.5 70.5q0 50 31 86.5t86 36.5 q47 0 72.5 -26.5t25.5 -71.5q0 -51 -32.5 -87t-85.5 -36zM465 1145q-46 0 -71 27.5t-25 70.5q0 50 30.5 86.5t85.5 36.5q47 0 73 -26.5t26 -71.5q0 -51 -33 -87t-86 -36z" />
<glyph unicode="&#xfd;" horiz-adv-x="1007" d="M2 623q74 317 256 317q62 0 97.5 -41.5t74.5 -153.5q31 -94 50 -154.5t47.5 -193.5t35.5 -247q100 97 172 212q103 167 103 269q0 199 -195 172q0 68 35 107.5t110 39.5q43 0 74.5 -18t48 -49.5t24 -66t7.5 -75.5q0 -140 -74 -292q-113 -232 -303 -394q-3 -234 -108 -386 t-275 -152q-93 0 -160 38.5t-67 122.5q0 58 48.5 99t143.5 37q-10 -30 -16 -62.5t-7 -72.5t18 -65.5t59 -25.5q56 0 100.5 36t68.5 90t36 107t12 97q0 261 -146 748q-29 96 -46 125.5t-38 29.5q-26 0 -56 -54t-56 -161zM528 1077l-45 33l242 377q30 49 78 49 q35 0 61.5 -26.5t26.5 -55.5q0 -38 -37 -72z" />
<glyph unicode="&#xfe;" horiz-adv-x="1058" d="M10 -393q18 136 84 573t117 793.5t51 423.5h-180l10 73h354q0 -91 -65 -550q-7 -53 -20.5 -140t-16.5 -108h8q148 278 348 278q126 0 197.5 -92.5t71.5 -255.5q0 -117 -37 -230t-102 -202t-162.5 -144t-208.5 -55q-145 0 -203 101q-34 -190 -68 -465h168l-10 -74h-512 l10 74h166zM297 229q0 -178 152 -178q99 0 177 90t118 232.5t40 308.5q0 104 -28 146t-82 42q-103 0 -221 -180q-68 -105 -112 -234t-44 -227z" />
<glyph unicode="&#xff;" horiz-adv-x="1007" d="M2 623q74 317 256 317q62 0 97.5 -41.5t74.5 -153.5q31 -94 50 -154.5t47.5 -193.5t35.5 -247q100 97 172 212q103 167 103 269q0 199 -195 172q0 68 35 107.5t110 39.5q43 0 74.5 -18t48 -49.5t24 -66t7.5 -75.5q0 -140 -74 -292q-113 -232 -303 -394q-3 -234 -108 -386 t-275 -152q-93 0 -160 38.5t-67 122.5q0 58 48.5 99t143.5 37q-10 -30 -16 -62.5t-7 -72.5t18 -65.5t59 -25.5q56 0 100.5 36t68.5 90t36 107t12 97q0 261 -146 748q-29 96 -46 125.5t-38 29.5q-26 0 -56 -54t-56 -161zM401 1145q-46 0 -71 27.5t-25 70.5q0 50 31 86.5 t86 36.5q47 0 72.5 -26.5t25.5 -71.5q0 -51 -33 -87t-86 -36zM770 1145q-46 0 -71 27.5t-25 70.5q0 50 31 86.5t86 36.5q47 0 72.5 -26.5t25.5 -71.5q0 -51 -33 -87t-86 -36z" />
<glyph unicode="&#x152;" horiz-adv-x="1873" d="M121 553q0 133 25.5 253t81 226t137 183.5t201 122t265.5 44.5q113 0 205 -28h822l-109 -414h-61v252q0 57 -7.5 69.5t-42.5 12.5h-460l-80 -563h305l47 180h88q-47 -182 -65 -313l-21 -148h-88l27 201h-306l-75 -551h434q44 0 72 21t63.5 99.5t79.5 233.5h65 q-30 -192 -38 -313l-9 -121h-821q-98 -29 -205 -29q-115 0 -205 29.5t-150.5 81t-100 125.5t-57 159.5t-17.5 186.5zM334 465q0 -97 14.5 -169.5t48.5 -131t97.5 -89t156.5 -30.5t164 27l168 1208q-66 29 -152 29q-83 0 -153.5 -28t-120.5 -75.5t-89.5 -115t-64 -141 t-40.5 -159t-22.5 -164.5t-6.5 -161z" />
<glyph unicode="&#x153;" horiz-adv-x="1533" d="M68 354q0 129 30 236t90 188.5t157.5 126.5t225.5 45q207 0 293 -155q128 155 346 155q173 0 230 -94q22 -42 22 -94t-22 -95t-46 -69t-82.5 -54.5t-87 -39t-103.5 -35.5q-5 -2 -8 -3t-7 -2.5t-8 -2.5q-158 -54 -199 -101q-2 -23 -2 -69q0 -126 42.5 -187t135.5 -61 t163.5 63.5t113.5 165.5l73 -22q-60 -134 -149.5 -206.5t-228.5 -72.5q-197 0 -273 156q-134 -156 -356 -156q-122 0 -202 51.5t-114 135t-34 196.5zM250 289q0 -51 9 -93.5t28 -79t54.5 -57t84.5 -20.5q82 0 145 57t98 148.5t52.5 191.5t17.5 201q0 114 -43.5 180 t-132.5 66q-99 0 -172 -86t-107 -218.5t-34 -289.5zM909 455q36 29 166 77q92 33 132 61t61 71q26 50 26 116q0 105 -102 105q-74 0 -134 -63t-96 -157t-53 -210z" />
<glyph unicode="&#x178;" horiz-adv-x="1273" d="M950 1280l11 74h421l-10 -74h-141q-76 -73 -149 -160.5t-151 -201.5t-135.5 -249t-78.5 -266l-47 -329h198l-10 -74h-588l11 74h196l39 266q35 234 -36 461t-232 479h-176l10 74h561l-10 -74h-166q77 -113 137 -258q72 -179 101 -340q63 157 159 297q116 173 248 301 h-162zM571 1534q-46 0 -71 27.5t-25 70.5q0 50 31 86.5t86 36.5q47 0 72.5 -26.5t25.5 -71.5q0 -51 -33 -87t-86 -36zM997 1534q-46 0 -71 27.5t-25 70.5q0 50 31 86.5t86 36.5q47 0 72.5 -26.5t25.5 -71.5q0 -51 -33 -87t-86 -36z" />
<glyph unicode="&#x2c6;" horiz-adv-x="1024" d="M303 1077l-51 29l291 430h80l165 -430l-53 -27l-178 271z" />
<glyph unicode="&#x2dc;" horiz-adv-x="1024" d="M205 1112q2 10 7 26.5t24.5 59t43.5 75t66.5 59t91.5 26.5q27 0 58 -17t53.5 -37.5t51 -37.5t52.5 -17q48 0 84.5 27.5t48.5 54.5l13 27h71q-1 -5 -3 -14t-10.5 -34.5t-19.5 -48.5t-31 -51.5t-44 -49t-60 -34.5t-77 -14q-34 0 -65 16.5t-50 36t-44 36t-48 16.5 q-46 0 -81.5 -26.5t-48.5 -52.5l-12 -26h-71z" />
<glyph unicode="&#x2000;" horiz-adv-x="917" />
<glyph unicode="&#x2001;" horiz-adv-x="1835" />
<glyph unicode="&#x2002;" horiz-adv-x="917" />
<glyph unicode="&#x2003;" horiz-adv-x="1835" />
<glyph unicode="&#x2004;" horiz-adv-x="611" />
<glyph unicode="&#x2005;" horiz-adv-x="458" />
<glyph unicode="&#x2006;" horiz-adv-x="305" />
<glyph unicode="&#x2007;" horiz-adv-x="305" />
<glyph unicode="&#x2008;" horiz-adv-x="229" />
<glyph unicode="&#x2009;" horiz-adv-x="367" />
<glyph unicode="&#x200a;" horiz-adv-x="101" />
<glyph unicode="&#x2010;" horiz-adv-x="788" d="M113 403l22 160h516l-22 -160h-516z" />
<glyph unicode="&#x2011;" horiz-adv-x="788" d="M113 403l22 160h516l-22 -160h-516z" />
<glyph unicode="&#x2012;" horiz-adv-x="788" d="M113 403l22 160h516l-22 -160h-516z" />
<glyph unicode="&#x2013;" horiz-adv-x="1333" d="M139 412v120h1024v-120h-1024z" />
<glyph unicode="&#x2014;" horiz-adv-x="2357" d="M139 412v120h2048v-120h-2048z" />
<glyph unicode="&#x2018;" horiz-adv-x="516" d="M313 915q-61 0 -102 50t-41 122q0 128 85.5 224t242.5 182l37 -63q-228 -127 -228 -244q0 -100 162 -137q-15 -63 -57 -98.5t-99 -35.5z" />
<glyph unicode="&#x2019;" horiz-adv-x="516" d="M199 913l-37 64q227 127 227 244q0 100 -162 137q15 63 57 98t99 35q61 0 102 -50t41 -122q0 -67 -24 -126t-70.5 -108.5t-102 -90t-130.5 -81.5z" />
<glyph unicode="&#x201a;" horiz-adv-x="528" d="M49 113q15 63 57 98t99 35q61 0 102 -50t41 -122q0 -128 -85.5 -224t-242.5 -182l-36 64q107 60 167 119.5t60 123.5q0 101 -162 138z" />
<glyph unicode="&#x201c;" horiz-adv-x="884" d="M682 915q-61 0 -102 50t-41 122q0 67 24 126t70.5 108.5t102 90t130.5 81.5l37 -63q-227 -127 -227 -244q0 -100 162 -137q-15 -63 -57 -98.5t-99 -35.5zM313 915q-61 0 -102 50t-41 122q0 128 85.5 224t242.5 182l37 -63q-228 -127 -228 -244q0 -100 162 -137 q-15 -63 -57 -98.5t-99 -35.5z" />
<glyph unicode="&#x201d;" horiz-adv-x="884" d="M567 913l-37 64q228 127 228 244q0 100 -162 137q15 63 57 98t99 35q61 0 102 -50t41 -122q0 -128 -85.5 -224t-242.5 -182zM199 913l-37 64q227 127 227 244q0 100 -162 137q15 63 57 98t99 35q61 0 102 -50t41 -122q0 -67 -24 -126t-70.5 -108.5t-102 -90t-130.5 -81.5 z" />
<glyph unicode="&#x201e;" horiz-adv-x="897" d="M418 113q15 63 56.5 98t98.5 35q61 0 102.5 -50t41.5 -122q0 -128 -85.5 -224t-242.5 -182l-37 64q228 127 228 243q0 101 -162 138zM49 113q15 63 57 98t99 35q61 0 102 -50t41 -122q0 -128 -85.5 -224t-242.5 -182l-36 64q107 60 167 119.5t60 123.5q0 101 -162 138z " />
<glyph unicode="&#x2022;" horiz-adv-x="884" d="M430 199q-120 0 -201.5 81t-81.5 201t81.5 201.5t201.5 81.5t201.5 -81.5t81.5 -201.5t-81.5 -201t-201.5 -81z" />
<glyph unicode="&#x2026;" horiz-adv-x="1503" d="M1061 113q0 54 39.5 93.5t93.5 39.5q55 0 95 -39.5t40 -93.5t-40 -93.5t-95 -39.5q-54 0 -93.5 39.5t-39.5 93.5zM557 113q0 54 39.5 93.5t93.5 39.5q55 0 95 -39.5t40 -93.5t-40 -93.5t-95 -39.5q-54 0 -93.5 39.5t-39.5 93.5zM53 113q0 54 39.5 93.5t93.5 39.5 q55 0 95.5 -39.5t40.5 -93.5t-40.5 -93.5t-95.5 -39.5q-54 0 -93.5 39.5t-39.5 93.5z" />
<glyph unicode="&#x202f;" horiz-adv-x="367" />
<glyph unicode="&#x2039;" horiz-adv-x="569" d="M354 4q-272 240 -272 434q0 63 35 133.5t94.5 135.5t117 116t122.5 99l49 -64q-47 -40 -74.5 -65.5t-51.5 -55.5t-35.5 -52t-22 -58t-15.5 -70.5t-10 -93.5q-10 -102 -10 -144q0 -73 28 -120t107 -131z" />
<glyph unicode="&#x203a;" horiz-adv-x="569" d="M90 4l-49 64q47 40 74.5 65.5t51.5 55.5t35.5 52t22 58t15.5 70.5t10 93.5q10 102 10 143q0 73 -28 120.5t-107 131.5l61 64q273 -241 273 -435q0 -63 -35 -133t-94.5 -135t-117 -116t-122.5 -99z" />
<glyph unicode="&#x205f;" horiz-adv-x="458" />
<glyph unicode="&#x20ac;" d="M57 676l11 78h149q28 85 70 155.5t102 128.5t144 90.5t184 32.5q175 0 248 -102l34 76h78q-45 -142 -51 -195l-16 -125h-84q8 68 8 70q0 81 -51.5 139.5t-157.5 58.5q-67 0 -122 -26t-94.5 -72.5t-67 -103.5t-46.5 -127h320l-10 -78h-328q-19 -111 -25 -205h328l-10 -78 h-320v-20q0 -167 57 -248.5t179 -81.5q105 0 181.5 57.5t109.5 167.5l77 -12q-16 -57 -45 -105.5t-73.5 -90t-111.5 -65.5t-149 -24q-193 0 -292.5 110.5t-110.5 311.5h-149l10 78h139q3 94 25 205h-140z" />
<glyph unicode="&#x2122;" horiz-adv-x="1873" d="M913 723v55h93v520h-97v56h250l168 -418l186 418h265v-56h-103v-520h103v-55h-332v55h94v465l-227 -520h-31l-209 502v-447h82v-55h-242zM375 723v55h102v520h-110q-28 0 -41 -26.5t-45 -143.5h-43v226h614v-226h-43q-32 117 -45 143.5t-41 26.5h-111v-520h105v-55h-342z " />
</font>
</defs>
</svg>
