<?xml version="1.0" encoding="UTF-8"?>
<svg width="12px" height="22px" viewBox="0 0 12 22" version="1.1" xmlns="http://www.w3.org/2000/svg" xmlns:xlink="http://www.w3.org/1999/xlink">
    <!-- Generator: Sketch 41.1 (35376) - http://www.bohemiancoding.com/sketch -->
    <title>money-white</title>
    <desc>Created with Sketch.</desc>
    <defs></defs>
    <g id="Page-1" stroke="none" stroke-width="1" fill="none" fill-rule="evenodd">
        <g id="Home-(alt-#1)" transform="translate(-796.000000, -1230.000000)" fill="#FFFFFF">
            <g id="info" transform="translate(720.000000, 1082.000000)">
                <path d="M77.0266809,161.960684 C77.0094934,161.803587 77.0006288,161.642887 77.0000323,161.478493 C77.0000108,161.472561 76.5,161.960684 76.5,161.960684 L77.4822239,161.960684 L76.9822239,161.460684 C76.9828548,161.642158 76.9917424,161.802934 77.0088819,161.960684 C77.1184369,162.96901 77.5651427,163.853714 78.3393355,164.596307 C79.2350102,165.455424 80.3250181,165.88958 81.5830085,165.88958 C82.9149736,165.88958 84.0754912,165.529729 85.0482942,164.809134 C86.0395749,164.061023 86.5521271,163.122956 86.5521271,162.025463 C86.5521271,161.632644 86.4756033,161.264854 86.3253563,160.924471 C86.1033283,160.42147 85.7203069,159.97832 85.1853292,159.602697 C84.3568325,159.008309 83.2575805,158.653712 81.8978122,158.531681 C80.433513,158.408364 79.2839756,157.999976 78.434679,157.314579 C78.0397831,156.995891 77.7434012,156.648527 77.5424056,156.268577 C77.3268495,155.861103 77.2210004,155.41615 77.2210004,154.928895 C77.2210004,154.004939 77.6237747,153.220224 78.4600167,152.542579 C79.3180769,151.847255 80.352453,151.5 81.5830085,151.5 C82.9152166,151.5 84.0427928,151.865902 84.9839333,152.5979 C85.722135,153.181334 86.1461304,153.843367 86.2727509,154.600785 C86.2989301,154.757383 86.3123974,154.918058 86.3133017,155.08296 C86.3133343,155.088896 86.8133505,154.600785 86.8133505,154.600785 L85.8311267,154.600785 L86.3311267,155.100785 C86.3301714,154.918555 86.3166394,154.757755 86.290647,154.600785 C86.1543411,153.77762 85.6753701,153.059752 84.8775319,152.465284 C83.9723882,151.777346 82.8672171,151.433113 81.5830085,151.433113 C80.4116516,151.433113 79.3877242,151.762232 78.5287432,152.420175 C77.6569544,153.083489 77.2032242,153.931768 77.2032242,154.928895 C77.2032242,155.413797 77.3179491,155.861748 77.5424056,156.268577 C77.7757958,156.691599 78.1278266,157.070162 78.5928842,157.399578 C79.4767898,158.012929 80.6151981,158.374748 82.0059813,158.496442 C83.4192655,158.619336 84.5368094,159.019538 85.3705976,159.689546 C85.8200973,160.057333 86.1369441,160.46694 86.3253563,160.924471 C86.4652617,161.264211 86.5343509,161.630375 86.5343509,162.025463 C86.5343509,163.044028 86.0773561,163.908803 85.1295937,164.652432 C84.1562628,165.416123 82.9802586,165.798137 81.5830085,165.798137 C80.3037478,165.798137 79.2336011,165.37301 78.3454024,164.514418 C77.5695313,163.789339 77.1344617,162.945826 77.0266809,161.960684 Z M83.0031056,166.670883 C84.028816,166.478501 84.945468,166.067971 85.7468806,165.43917 C86.9272805,164.51301 87.5343509,163.364246 87.5343509,162.025463 C87.5343509,160.791716 87.0144657,159.742493 86.000412,158.912813 C85.1947659,158.265399 84.1942444,157.836447 83.0031056,157.620609 L83.0031056,152.624329 C83.4735487,152.762732 83.8971183,152.976167 84.2762496,153.264306 C84.9943997,153.799427 85.3311267,154.400253 85.3311267,155.100785 L85.3311267,155.600785 L87.3133505,155.600785 L87.3133505,155.100785 C87.3133505,153.811861 86.7314921,152.704453 85.6009308,151.810945 C84.8352597,151.21541 83.9677331,150.823123 83.0031056,150.633382 L83.0031056,148 L81.0031056,148 L81.0031056,150.523222 C79.7922117,150.622059 78.73039,151.036371 77.8304332,151.765647 C76.7676996,152.626827 76.2210004,153.691948 76.2210004,154.928895 C76.2210004,156.180943 76.7588238,157.247155 77.8066597,158.092777 C78.6520146,158.774993 79.7197388,159.218751 81.0031056,159.428834 L81.0031056,164.849542 C80.2515968,164.742235 79.5989334,164.41884 79.0315607,163.874626 C78.3269394,163.198765 77.9822239,162.403808 77.9822239,161.460684 L77.9822239,160.960684 L76,160.960684 L76,161.460684 C76,162.942265 76.5572428,164.212048 77.6565189,165.23924 C78.5895156,166.141224 79.712386,166.655381 81.0031056,166.772338 L81.0031056,170 L83.0031056,170 L83.0031056,166.670883 Z M81.0031056,157.337788 C80.2734746,157.177575 79.6620442,156.924318 79.1669336,156.580771 C78.5116491,156.116583 78.2032242,155.576839 78.2032242,154.928895 C78.2032242,154.256234 78.5025248,153.696672 79.1355426,153.215028 C79.6745347,152.802186 80.2939422,152.553095 81.0031056,152.467115 L81.0031056,157.337788 Z M83.0031056,159.71965 C83.6428235,159.87628 84.177012,160.110019 84.6065601,160.418173 C85.2525252,160.871755 85.5521271,161.394464 85.5521271,162.025463 C85.5521271,162.794204 85.1970568,163.44405 84.449477,164.008261 C84.0159291,164.329394 83.534503,164.563123 83.0031056,164.708863 L83.0031056,159.71965 Z" id="money-white"></path>
            </g>
        </g>
    </g>
</svg>