<?xml version="1.0" encoding="UTF-8"?>
<svg width="18px" height="16px" viewBox="0 0 18 16" version="1.1" xmlns="http://www.w3.org/2000/svg" xmlns:xlink="http://www.w3.org/1999/xlink">
    <!-- Generator: Sketch 41.1 (35376) - http://www.bohemiancoding.com/sketch -->
    <title>vote-white</title>
    <desc>Created with Sketch.</desc>
    <defs></defs>
    <g id="Page-1" stroke="none" stroke-width="1" fill="none" fill-rule="evenodd">
        <g id="Home-(alt-#1)" transform="translate(-794.000000, -1334.000000)" fill="#FFFFFF">
            <g id="info" transform="translate(720.000000, 1082.000000)">
                <path d="M81.0568848,265.256948 L91.0568848,265.256948 L91.0568848,267.256948 L81.0568848,267.256948 L81.0568848,265.256948 Z M76.0568848,265.256948 L78.0568848,265.256948 L78.0568848,267.256948 L76.0568848,267.256948 L76.0568848,265.256948 Z M81.0568848,260.256948 L91.0568848,260.256948 L91.0568848,262.256948 L81.0568848,262.256948 L81.0568848,260.256948 Z M76.0568848,260.256948 L78.0568848,260.256948 L78.0568848,262.256948 L76.0568848,262.256948 L76.0568848,260.256948 Z M81.0568848,255.256948 L91.0568848,255.256948 L91.0568848,257.256948 L81.0568848,257.256948 L81.0568848,255.256948 Z M74.9673121,254.326824 L74,255.473256 L76.9383545,258.394155 L79.876709,252.549184 L78.4808591,252 L76.9242728,255.784079 L74.9673121,254.326824 Z" id="vote-white"></path>
            </g>
        </g>
    </g>
</svg>